<?xml version="1.0" encoding="UTF-8" standalone="no"?>
<!DOCTYPE svg PUBLIC "-//W3C//DTD SVG 1.1//EN" "http://www.w3.org/Graphics/SVG/1.1/DTD/svg11.dtd">
<svg width="100%" height="100%" viewBox="0 0 365 120" version="1.1" xmlns="http://www.w3.org/2000/svg" xmlns:xlink="http://www.w3.org/1999/xlink" xml:space="preserve" xmlns:serif="http://www.serif.com/" style="fill-rule:evenodd;clip-rule:evenodd;stroke-linejoin:round;stroke-miterlimit:2;">
    <g transform="matrix(1,0,0,1,-1050,-555)">
        <g id="jsd-logo.svg" transform="matrix(0.512821,0,0,0.506329,1110,615)">
            <g transform="matrix(1,0,0,1,-117,-118.5)">
                <clipPath id="_clip1">
                    <rect x="0" y="0" width="234" height="237"/>
                </clipPath>
                <g clip-path="url(#_clip1)">
                    <path d="M135,238L1,238C1,159 1,80 1,1C79,1 157,1 235,1C235,80 235,159 235,238C201.833,238 168.667,238 135,238M36.549,151.957C38.729,150.909 40.002,151.26 42.061,153.182C45.831,156.702 50.583,159.169 54.706,162.796C55.776,167.324 56.801,171.864 57.937,176.376C58.513,178.662 60.588,182.012 59.763,182.973C54.865,188.674 51.976,196.374 44.237,199.451C43.58,199.712 42.895,201.964 43.222,202.29C44.941,204.002 45.892,207.905 49.719,204.876C51.877,203.168 54.449,201.985 56.997,200.468L56.997,209.794C56.495,210.085 55.106,210.889 53.314,211.926C60.58,215.813 61.246,215.528 63.072,208.84C63.665,206.669 64.417,204.529 65.248,202.435C68.144,195.132 73.779,191.524 80.196,191.899C84.39,192.144 88.644,191.354 93.167,191.664C97.317,198.775 104.722,199.848 111.029,201.348L111.029,227.775L117.64,227.775C117.903,226.587 118.133,225.55 118.457,224.085C119.861,231.111 124.547,226.809 128.136,227.021C126.919,225.709 125.702,224.398 125.397,224.069L125.397,200.571C133.075,198.643 139.076,195.65 143.14,189.002C149.711,189.405 156.283,189.808 162.924,190.216C167.247,196.07 171.937,202.422 176.412,208.482C175.817,209.903 175.296,211.147 174.699,212.572C181.467,212.978 183.691,210.591 182.45,204.944C182.241,203.994 182.094,203.029 182.307,201.712C182.42,201.576 182.533,201.441 183.185,201.769C184.237,203.786 185.29,205.803 186.336,207.808C193.221,204.516 193.508,203.284 188.933,197.437C185.272,192.757 181.6,188.085 177.912,183.426C176.638,181.818 176.794,180.664 177.552,178.492C179.6,172.62 180.545,166.363 182.659,160.048C187.584,156.193 192.509,152.338 197.15,148.705C198.725,148.823 200.377,148.946 202.739,149.28C205.782,152.336 208.825,155.392 212.368,158.95C214.177,155.876 215.541,153.557 217.169,150.791C218.413,151.408 220.088,151.996 221.456,153.002C222.4,153.695 222.919,154.965 223.627,155.978C224.417,154.715 225.469,153.538 225.918,152.165C226.303,150.988 225.998,149.586 225.998,148.749C222.976,147.453 220.457,146.372 217.938,145.292C218.076,145.041 218.215,144.791 218.354,144.54C221.506,144.707 224.659,144.873 228.166,145.058C227.955,141.646 227.789,138.966 227.539,134.921C225.359,137.375 224.217,138.66 222.88,140.166C221.789,139.724 219.677,139.4 219.568,138.743C218.34,131.366 212.629,134.672 208.658,134.038C207.149,133.797 205.553,134.097 203.15,134.018C202.101,133.245 200.536,132.695 200.089,131.661C197.84,126.454 195.881,121.12 194.217,115.227C196.241,108.83 198.266,102.433 200.601,95.053C206.786,93.224 214.423,90.965 222.229,88.656C222.732,89.091 223.965,90.157 225.596,91.566C226.436,83.002 226.436,83.002 219.189,83C217.297,82.999 215.406,82.999 213.016,82.999C215.33,80.283 217.124,78.178 219.307,75.711C219.42,75.575 219.533,75.439 220.198,75.72C221.099,75.25 222.001,74.78 222.902,74.31C221.785,72.845 220.891,71.078 219.467,70.03C218.618,69.405 216.677,69.429 215.673,69.978C208.523,73.889 201.487,78.01 196.599,80.812C188.593,76.747 182.805,73.807 177.005,70.044C174.759,63.687 172.514,57.33 170.207,50.8C172.058,49.508 174.503,47.624 177.12,46.023C179.644,44.479 182.346,43.226 184.969,41.845C183.059,39.25 181.15,36.655 178.722,33.357C180.313,32.181 182.092,30.752 183.995,29.515C184.785,29.001 185.841,28.896 186.776,28.606C186.278,27.671 186.013,26.414 185.242,25.858C181.932,23.471 178.492,21.26 175.045,19.071C174.615,18.798 173.86,19.034 174.363,19.034C172.979,22.868 171.85,25.997 170.782,28.955C166.881,27.599 164.211,26.672 161.719,25.806C160.533,32.102 159.433,37.941 158.328,43.809C150.894,41.765 144.299,40.734 137.202,43.68C134.382,41.766 131.66,39.682 128.717,37.982C124.959,35.811 122.128,33.564 122.881,28.413C123.475,24.347 123.053,20.123 122.964,15.971C122.939,14.844 122.482,13.726 122.452,13.599C123.814,12.641 125.25,11.63 126.687,10.619C126.044,9.915 125.402,9.21 124.76,8.506C121.324,7.366 117.441,4.502 116.613,11.591C116.341,13.92 115.048,16.13 114.295,18.193C112.313,15.834 110.247,13.375 108.323,11.084C108.579,10.476 109.068,9.315 109.557,8.154C107.926,8.018 106.032,7.317 104.742,7.916C103.6,8.446 102.133,10.938 102.518,11.683C106.294,18.993 107.734,26.684 107.127,33.772C102.334,37.813 98.001,41.467 92.871,45.027C86.163,42.96 79.717,44.409 73.215,46.223C71.897,46.591 69.847,45.931 68.735,45.016C67.437,43.95 66.91,42.001 65.853,40.579C62.49,36.052 59.037,31.592 55.846,27.405C52.425,29.86 48.99,32.276 45.623,34.784C44.96,35.278 44.084,36.189 44.163,36.795C44.262,37.556 45.146,38.339 45.871,38.864C46.921,39.623 48.48,39.889 49.216,40.836C53.015,45.72 56.621,50.754 59.813,55.083C57.854,60.717 55.916,66.293 53.321,72.153C47.881,76.072 42.441,79.991 36.788,84.064C31.249,82.225 24.856,80.124 18.48,77.97C17.024,77.478 14.665,77.591 15.902,74.831C14.682,74.642 12.974,73.844 12.325,74.366C9.082,76.971 9.619,79.989 11.69,83.292C11.575,83.428 11.46,83.564 10.773,83.259C7.333,83.282 6.393,85.796 7.182,88.202C7.796,90.074 9.761,92.211 11.602,92.844C18.565,95.24 25.722,97.07 30.746,98.518C34.311,106.095 37.147,112.121 39.712,118.799C38.141,123.682 36.679,128.604 34.946,133.429C34.255,135.352 32.966,137.059 31.224,138.964C26.917,139.506 22.609,140.047 19.674,140.417C17.728,143.308 16.711,146.301 14.663,147.436C12.707,148.52 9.678,147.67 6.988,147.67C8.946,152.504 10.854,157.212 13.112,162.785C16.82,158.479 20.318,151.563 26.22,161.143C29.008,157.395 31.224,154.328 33.589,151.38C33.819,151.095 34.974,151.552 36.549,151.957Z" style="fill:#fff;fill-rule:nonzero;"/>
                    <path d="M137.783,43.98C144.299,40.734 150.894,41.765 158.328,43.809C159.433,37.941 160.533,32.102 161.719,25.806C164.211,26.672 166.881,27.599 170.782,28.955C171.85,25.997 172.979,22.868 174.363,19.034C173.86,19.034 174.615,18.798 175.045,19.071C178.492,21.26 181.932,23.471 185.242,25.858C186.013,26.414 186.278,27.671 186.776,28.606C185.841,28.896 184.785,29.001 183.995,29.515C182.092,30.752 180.313,32.181 178.722,33.357C181.15,36.655 183.059,39.25 184.969,41.845C182.346,43.226 179.644,44.479 177.12,46.023C174.503,47.624 172.058,49.508 170.207,50.8C172.514,57.33 174.759,63.687 176.615,70.544C175.418,71.061 174.611,71.077 173.807,70.722C171.429,66.214 169.049,62.076 166.668,57.939C164.486,62.123 157.827,66.631 154.438,65.95C151.69,65.399 149.472,64.222 149.966,60.704C150.172,59.237 150.14,57.701 149.973,56.223C149.545,52.437 151.022,50.624 155.033,51.359C155.596,51.7 156.055,51.764 156.513,51.828C156.261,51.351 156.009,50.875 155.514,50.122C150.203,48.592 145.135,47.338 139.74,45.995C138.869,45.264 138.326,44.622 137.783,43.98M164.969,57.707C164.479,57.598 163.989,57.489 163.498,57.38C163.86,57.712 164.222,58.044 164.969,57.707Z" style="fill:#603813;fill-rule:nonzero;"/>
                    <path d="M12.077,82.923C9.619,79.989 9.082,76.971 12.325,74.366C12.974,73.844 14.682,74.642 15.902,74.831C14.665,77.591 17.024,77.478 18.48,77.97C24.856,80.124 31.249,82.225 36.788,84.064C42.441,79.991 47.881,76.072 53.894,72.232C54.252,73.538 54.037,74.764 53.524,76.131C50.262,80.512 47.3,84.752 44.238,89.137C49.24,90.332 53.01,91.233 58.313,92.499C56.2,96.621 55.067,102.311 52.351,103.21C49.25,104.235 44.738,100.992 40.446,99.464L40.446,114.28C44.191,115.032 46.656,115.527 49.121,116.022C49.079,116.538 49.037,117.053 48.995,117.569C47.019,118.074 45.042,118.58 42.766,118.946C41.639,118.587 40.811,118.367 39.983,118.147C37.147,112.121 34.311,106.095 30.746,98.518C25.722,97.07 18.565,95.24 11.602,92.844C9.761,92.211 7.796,90.074 7.182,88.202C6.393,85.796 7.333,83.282 11.279,83.764C13.216,84.993 14.647,85.717 16.077,86.441C16.26,86.061 16.443,85.681 16.626,85.301C15.11,84.509 13.594,83.716 12.077,82.923Z" style="fill:#374ea1;fill-rule:nonzero;"/>
                    <path d="M173.804,71.093C174.611,71.077 175.418,71.061 176.621,70.956C182.805,73.807 188.593,76.747 196.599,80.812C201.487,78.01 208.523,73.889 215.673,69.978C216.677,69.429 218.618,69.405 219.467,70.03C220.891,71.078 221.785,72.845 222.902,74.31C222.001,74.78 221.099,75.25 219.739,75.296C218.914,74.765 218.548,74.657 218.182,74.549C218.427,75.057 218.673,75.564 218.918,76.072C217.124,78.178 215.33,80.283 213.016,82.999C215.406,82.999 217.297,82.999 219.189,83C226.436,83.002 226.436,83.002 225.596,91.566C223.965,90.157 222.732,89.091 222.229,88.656C214.423,90.965 206.786,93.224 200.601,95.053C198.266,102.433 196.241,108.83 193.683,115.574C192.672,116.584 192.195,117.247 191.4,117.719C189.412,116.719 187.741,115.909 186.07,115.1C187.747,114.691 189.428,114.297 191.097,113.859C191.368,113.788 191.589,113.527 192.848,112.632C192.349,107.303 191.794,101.385 191.363,96.783C187.26,97.831 183.266,100.148 180.445,99.15C178.3,98.391 176.023,92.999 176.691,90.415C177.823,86.036 182.622,85.689 186.937,86.343C186.222,84.083 185.7,82.048 184.937,80.109C183.719,77.015 178.171,73.869 175.766,74.64C174.523,75.039 173.17,75.094 171.866,75.305C172.512,73.901 173.158,72.497 173.804,71.093Z" style="fill:#14a89d;fill-rule:nonzero;"/>
                    <path d="M181.918,202.071C182.094,203.029 182.241,203.994 182.45,204.944C183.691,210.591 181.467,212.978 174.699,212.572C175.296,211.147 175.817,209.903 176.412,208.482C171.937,202.422 167.247,196.07 162.924,190.216C156.283,189.808 149.711,189.405 142.677,188.573C141.335,186.155 140.456,184.166 139.996,182.116C143.174,185.489 146.74,187.349 150.999,185.825C154.677,184.509 158.051,182.343 161.183,180.744C159.289,177.471 153.666,176.543 155.417,171.385C156.473,168.274 159.378,165.471 162.793,166.227C167.249,167.213 167.911,171.54 168.209,175.568C175.59,171.234 177.113,170.04 178.008,164.458C178.352,162.319 176.456,159.821 175.315,156.776C177.155,157.248 178.892,157.693 180.718,158.447C181.181,159.258 181.554,159.758 181.927,160.259C180.545,166.363 179.6,172.62 177.552,178.492C176.794,180.664 176.638,181.818 177.912,183.426C181.6,188.085 185.272,192.757 188.933,197.437C193.508,203.284 193.221,204.516 186.336,207.808C185.29,205.803 184.237,203.786 182.733,201.322C181.915,200.766 181.55,200.658 181.184,200.549C181.429,201.057 181.673,201.564 181.918,202.071Z" style="fill:#01aeee;fill-rule:nonzero;"/>
                    <path d="M92.872,191.028C88.644,191.354 84.39,192.144 80.196,191.899C73.779,191.524 68.144,195.132 65.248,202.435C64.417,204.529 63.665,206.669 63.072,208.84C61.246,215.528 60.58,215.813 53.314,211.926C55.106,210.889 56.495,210.085 56.997,209.794L56.997,200.468C54.449,201.985 51.877,203.168 49.719,204.876C45.892,207.905 44.941,204.002 43.222,202.29C42.895,201.964 43.58,199.712 44.237,199.451C51.976,196.374 54.865,188.674 59.763,182.973C60.588,182.012 58.513,178.662 57.937,176.376C56.801,171.864 55.776,167.324 54.998,162.176C56.133,160.38 56.975,159.204 57.989,157.702C59.1,157.558 60.04,157.74 60.981,157.922C60.052,159.939 59.122,161.956 58.193,163.973C57.606,164.029 57.018,164.085 56.431,164.141C60.125,168.966 63.819,173.791 68.215,179.533C68.956,176.427 68.933,174.938 69.625,173.949C71.108,171.831 73.173,168.215 74.616,168.389C77.226,168.704 79.918,171.008 81.883,173.124C83.398,174.756 83.853,177.372 84.58,179.084C81.454,180.459 78.338,181.83 75.377,183.133C80.312,188.665 86.634,188.192 93.002,188.328C93.028,189.48 92.95,190.254 92.872,191.028Z" style="fill:#0b9444;fill-rule:nonzero;"/>
                    <path d="M137.493,43.83C138.326,44.622 138.869,45.264 139.693,46.387C139.18,48.964 138.386,51.062 137.592,53.159C135.882,44.336 133.966,43.503 118.18,42.352C118.95,43.268 119.954,43.931 120.13,44.768C120.705,47.507 121.96,50.709 121.044,52.953C120.371,54.6 116.53,56.091 114.408,55.749C111.08,55.214 108.01,53.072 105.396,51.871C107.097,48.641 108.462,46.049 109.9,43.318C103.603,41.982 99.323,45.111 94.73,47.939C94.189,46.862 93.929,45.991 93.668,45.121C98.001,41.467 102.334,37.813 107.127,33.772C107.734,26.684 106.294,18.993 102.518,11.683C102.133,10.938 103.6,8.446 104.742,7.916C106.032,7.317 107.926,8.018 109.557,8.154C109.068,9.315 108.579,10.476 108.323,11.084C110.247,13.375 112.313,15.834 114.295,18.193C115.048,16.13 116.341,13.92 116.613,11.591C117.441,4.502 121.324,7.366 124.76,8.506C125.402,9.21 126.044,9.915 126.687,10.619C125.25,11.63 123.814,12.641 122.452,13.599C122.482,13.726 122.939,14.844 122.964,15.971C123.053,20.123 123.475,24.347 122.881,28.413C122.128,33.564 124.959,35.811 128.717,37.982C131.66,39.682 134.382,41.766 137.493,43.83Z" style="fill:#8cc63f;fill-rule:nonzero;"/>
                    <path d="M93.019,191.346C92.95,190.254 93.028,189.48 93.046,187.964C93.728,185.85 94.469,184.479 95.211,183.108C95.63,183.257 96.05,183.407 96.469,183.557L96.469,191.88C102.409,192.77 108.802,193.727 115.196,194.685C115.409,194.251 115.623,193.818 115.836,193.384C110.064,193.246 111.391,188.794 112.3,186.688C113.325,184.313 116.281,181.744 118.768,181.289C121.8,180.735 123.909,183.303 124.079,186.923C124.165,188.751 125.075,190.541 125.676,192.566C124.779,192.823 123.657,193.143 122.535,193.464C122.656,193.922 122.777,194.38 122.898,194.837C127.246,193.739 131.63,192.766 135.928,191.499C138.766,190.663 139.757,188.826 138.518,185.776C138.149,184.87 139.184,183.393 139.576,182.177C140.456,184.166 141.335,186.155 142.274,188.513C139.076,195.65 133.075,198.643 125.397,200.571L125.397,224.069C125.702,224.398 126.919,225.709 128.136,227.021C124.547,226.809 119.861,231.111 118.457,224.085C118.133,225.55 117.903,226.587 117.64,227.775L111.029,227.775L111.029,201.348C104.722,199.848 97.317,198.775 93.019,191.346Z" style="fill:#f6941d;fill-rule:nonzero;"/>
                    <path d="M93.27,45.074C93.929,45.991 94.189,46.862 94.726,48.323C95.003,50.403 95.003,51.893 95.003,53.384C94.654,53.551 94.306,53.718 93.958,53.885C92.693,52.045 91.428,50.206 89.6,47.548C85.473,48.775 80.79,50.167 77.276,51.212C79.381,54.023 82.098,56.213 82.76,58.908C83.544,62.103 77.513,67.871 74.363,68C70.438,68.16 67.626,65.353 66.481,59.98C59.659,62.033 59.004,68.162 57.12,73.088C58.73,74.562 59.997,75.722 61.414,77.019C57.844,80.591 55.888,77.991 53.823,75.991C54.037,74.764 54.252,73.538 54.222,72.09C55.916,66.293 57.854,60.717 59.813,55.083C56.621,50.754 53.015,45.72 49.216,40.836C48.48,39.889 46.921,39.623 45.871,38.864C45.146,38.339 44.262,37.556 44.163,36.795C44.084,36.189 44.96,35.278 45.623,34.784C48.99,32.276 52.425,29.86 55.846,27.405C59.037,31.592 62.49,36.052 65.853,40.579C66.91,42.001 67.437,43.95 68.735,45.016C69.847,45.931 71.897,46.591 73.215,46.223C79.717,44.409 86.163,42.96 93.27,45.074Z" style="fill:#f16622;fill-rule:nonzero;"/>
                    <path d="M182.293,160.154C181.554,159.758 181.181,159.258 180.91,158.144C183.812,154.387 186.613,151.244 189.706,147.771C180.815,146.21 180.556,146.252 179.237,138.114C178.919,136.154 180.351,132.897 182.005,131.832C186.089,129.202 189.695,131.567 192.531,134.719C195.39,128.798 193.617,123.35 191.718,117.91C192.195,117.247 192.672,116.584 193.485,115.876C195.881,121.12 197.84,126.454 200.089,131.661C200.536,132.695 202.101,133.245 203.522,134.462C203.272,139.627 202.65,144.348 202.028,149.07C200.377,148.946 198.725,148.823 197.15,148.705C192.509,152.338 187.584,156.193 182.293,160.154Z" style="fill:#d42027;fill-rule:nonzero;"/>
                    <path d="M57.818,158.027C56.975,159.204 56.133,160.38 55.108,161.816C50.583,159.169 45.831,156.702 42.061,153.182C40.002,151.26 38.729,150.909 36.208,151.387C34.561,146.833 33.255,142.849 31.949,138.864C32.966,137.059 34.255,135.352 34.946,133.429C36.679,128.604 38.141,123.682 39.848,118.473C40.811,118.367 41.639,118.587 42.726,119.346C41.26,125.333 39.699,130.785 42.352,135.84C44.728,134.883 46.972,133.444 49.362,133.14C53.094,132.664 56.041,135.117 56.456,138.429C56.694,140.334 54.402,143.047 52.567,144.583C50.749,146.105 48.075,146.604 45.834,147.529C48.591,155.524 52.357,158.683 57.818,158.027Z" style="fill:#9f2063;fill-rule:nonzero;"/>
                    <path d="M202.384,149.175C202.65,144.348 203.272,139.627 203.946,134.528C205.553,134.097 207.149,133.797 208.658,134.038C212.629,134.672 218.34,131.366 219.568,138.743C219.677,139.4 221.789,139.724 222.88,140.166C224.217,138.66 225.359,137.375 227.539,134.921C227.789,138.966 227.955,141.646 228.166,145.058C224.659,144.873 221.506,144.707 218.354,144.54C218.215,144.791 218.076,145.041 217.938,145.292C220.457,146.372 222.976,147.453 225.998,148.749C225.998,149.586 226.303,150.988 225.918,152.165C225.469,153.538 224.417,154.715 223.627,155.978C222.919,154.965 222.4,153.695 221.456,153.002C220.088,151.996 218.413,151.408 217.169,150.791C215.541,153.557 214.177,155.876 212.368,158.95C208.825,155.392 205.782,152.336 202.384,149.175Z" style="fill:#d42128;fill-rule:nonzero;"/>
                    <path d="M31.587,138.914C33.255,142.849 34.561,146.833 35.783,151.241C34.974,151.552 33.819,151.095 33.589,151.38C31.224,154.328 29.008,157.395 26.22,161.143C20.318,151.563 16.82,158.479 13.112,162.785C10.854,157.212 8.946,152.504 6.988,147.67C9.678,147.67 12.707,148.52 14.663,147.436C16.711,146.301 17.728,143.308 19.674,140.417C22.609,140.047 26.917,139.506 31.587,138.914Z" style="fill:#9f2064;fill-rule:nonzero;"/>
                    <path d="M57.989,157.702C52.357,158.683 48.591,155.524 45.834,147.529C48.075,146.604 50.749,146.105 52.567,144.583C54.402,143.047 56.694,140.334 56.456,138.429C56.041,135.117 53.094,132.664 49.362,133.14C46.972,133.444 44.728,134.883 42.352,135.84C39.699,130.785 41.26,125.333 43.026,119.485C45.042,118.58 47.019,118.074 48.995,117.569C49.037,117.053 49.079,116.538 49.121,116.022C46.656,115.527 44.191,115.032 40.446,114.28L40.446,99.464C44.738,100.992 49.25,104.235 52.351,103.21C55.067,102.311 56.2,96.621 58.313,92.499C53.01,91.233 49.24,90.332 44.238,89.137C47.3,84.752 50.262,80.512 53.524,76.131C55.888,77.991 57.844,80.591 61.414,77.019C59.997,75.722 58.73,74.562 57.12,73.088C59.004,68.162 59.659,62.033 66.481,59.98C67.626,65.353 70.438,68.16 74.363,68C77.513,67.871 83.544,62.103 82.76,58.908C82.098,56.213 79.381,54.023 77.276,51.212C80.79,50.167 85.473,48.775 89.6,47.548C91.428,50.206 92.693,52.045 93.958,53.885C94.306,53.718 94.654,53.551 95.003,53.384C95.003,51.893 95.003,50.403 95.006,48.528C99.323,45.111 103.603,41.982 109.9,43.318C108.462,46.049 107.097,48.641 105.396,51.871C108.01,53.072 111.08,55.214 114.408,55.749C116.53,56.091 120.371,54.6 121.044,52.953C121.96,50.709 120.705,47.507 120.13,44.768C119.954,43.931 118.95,43.268 118.18,42.352C133.966,43.503 135.882,44.336 137.592,53.159C138.386,51.062 139.18,48.964 140.021,46.475C145.135,47.338 150.203,48.592 155.298,50.283C155.193,50.84 155.061,50.962 154.928,51.083C151.022,50.624 149.545,52.437 149.973,56.223C150.14,57.701 150.172,59.237 149.966,60.704C149.472,64.222 151.69,65.399 154.438,65.95C157.827,66.631 164.486,62.123 166.668,57.939C169.049,62.076 171.429,66.214 173.807,70.722C173.158,72.497 172.512,73.901 171.866,75.305C173.17,75.094 174.523,75.039 175.766,74.64C178.171,73.869 183.719,77.015 184.937,80.109C185.7,82.048 186.222,84.083 186.937,86.343C182.622,85.689 177.823,86.036 176.691,90.415C176.023,92.999 178.3,98.391 180.445,99.15C183.266,100.148 187.26,97.831 191.363,96.783C191.794,101.385 192.349,107.303 192.848,112.632C191.589,113.527 191.368,113.788 191.097,113.859C189.428,114.297 187.747,114.691 186.07,115.1C187.741,115.909 189.412,116.719 191.4,117.719C193.617,123.35 195.39,128.798 192.531,134.719C189.695,131.567 186.089,129.202 182.005,131.832C180.351,132.897 178.919,136.154 179.237,138.114C180.556,146.252 180.815,146.21 189.706,147.771C186.613,151.244 183.812,154.387 180.82,157.834C178.892,157.693 177.155,157.248 175.315,156.776C176.456,159.821 178.352,162.319 178.008,164.458C177.113,170.04 175.59,171.234 168.209,175.568C167.911,171.54 167.249,167.213 162.793,166.227C159.378,165.471 156.473,168.274 155.417,171.385C153.666,176.543 159.289,177.471 161.183,180.744C158.051,182.343 154.677,184.509 150.999,185.825C146.74,187.349 143.174,185.489 139.996,182.116C139.184,183.393 138.149,184.87 138.518,185.776C139.757,188.826 138.766,190.663 135.928,191.499C131.63,192.766 127.246,193.739 122.898,194.837C122.777,194.38 122.656,193.922 122.535,193.464C123.657,193.143 124.779,192.823 125.676,192.566C125.075,190.541 124.165,188.751 124.079,186.923C123.909,183.303 121.8,180.735 118.768,181.289C116.281,181.744 113.325,184.313 112.3,186.688C111.391,188.794 110.064,193.246 115.836,193.384C115.623,193.818 115.409,194.251 115.196,194.685C108.802,193.727 102.409,192.77 96.469,191.88L96.469,183.557C96.05,183.407 95.63,183.257 95.211,183.108C94.469,184.479 93.728,185.85 92.942,187.585C86.634,188.192 80.312,188.665 75.377,183.133C78.338,181.83 81.454,180.459 84.58,179.084C83.853,177.372 83.398,174.756 81.883,173.124C79.918,171.008 77.226,168.704 74.616,168.389C73.173,168.215 71.108,171.831 69.625,173.949C68.933,174.938 68.956,176.427 68.215,179.533C63.819,173.791 60.125,168.966 56.431,164.141C57.018,164.085 57.606,164.029 58.193,163.973C59.122,161.956 60.052,159.939 60.981,157.922C60.04,157.74 59.1,157.558 57.989,157.702M68.946,104.426C64.886,118.077 66.839,130.942 74.008,143.125C86.038,163.57 107.589,170.391 126.203,166.667C150.442,161.818 168.514,139.667 166.128,113.401C164.444,94.867 155.252,81.533 139.341,73.283C122.263,64.427 104.797,65.586 88.681,76.21C78.856,82.688 72.073,91.95 68.946,104.426Z" style="fill:#fff;fill-rule:nonzero;"/>
                    <path d="M164.776,58.042C164.222,58.044 163.86,57.712 163.498,57.38C163.989,57.489 164.479,57.598 164.776,58.042Z" style="fill:#fff;fill-rule:nonzero;"/>
                    <path d="M155.541,50.559C156.009,50.875 156.261,51.351 156.513,51.828C156.055,51.764 155.596,51.7 155.033,51.359C155.061,50.962 155.193,50.84 155.541,50.559Z" style="fill:#fff;fill-rule:nonzero;"/>
                    <path d="M11.884,83.107C13.594,83.716 15.11,84.509 16.626,85.301C16.443,85.681 16.26,86.061 16.077,86.441C14.647,85.717 13.216,84.993 11.565,83.985C11.46,83.564 11.575,83.428 11.884,83.107Z" style="fill:#fff;fill-rule:nonzero;"/>
                    <path d="M219.113,75.891C218.673,75.564 218.427,75.057 218.182,74.549C218.548,74.657 218.914,74.765 219.463,75.087C219.533,75.439 219.42,75.575 219.113,75.891Z" style="fill:#fff;fill-rule:nonzero;"/>
                    <path d="M182.113,201.892C181.673,201.564 181.429,201.057 181.184,200.549C181.55,200.658 181.915,200.766 182.463,201.09C182.533,201.441 182.42,201.576 182.113,201.892Z" style="fill:#fff;fill-rule:nonzero;"/>
                    <path d="M68.97,104.003C72.073,91.95 78.856,82.688 88.681,76.21C104.797,65.586 122.263,64.427 139.341,73.283C155.252,81.533 164.444,94.867 166.128,113.401C168.514,139.667 150.442,161.818 126.203,166.667C107.589,170.391 86.038,163.57 74.008,143.125C66.839,130.942 64.886,118.077 68.97,104.003M95.123,158.641C95.662,158.68 96.201,158.719 96.739,158.758C96.422,158.319 96.106,157.879 95.343,156.907C92.544,153.061 89.744,149.215 86.9,145.308L78.948,145.308C84.32,150.686 88.321,155.925 95.123,158.641M137.793,159.001C143.283,154.727 148.773,150.453 154.262,146.179C153.982,145.816 153.701,145.453 153.421,145.09L145.249,145.09C142.074,149.781 139.151,154.098 135.785,158.799C135.652,159.134 135.518,159.469 135.385,159.804C135.948,159.562 136.511,159.321 137.793,159.001M94.207,76.999C87.867,80.764 81.938,84.954 78.325,91.878L85.798,91.878C89.347,86.791 92.559,82.188 96.215,77.201C96.348,76.866 96.482,76.531 96.615,76.196C96.052,76.438 95.489,76.679 94.207,76.999M117.064,103.576L117.064,117.68L148.489,117.68C147.066,110.421 145.938,103.617 144.242,96.958C143.929,95.727 141.357,94.373 139.764,94.289C133.784,93.975 127.77,94.34 121.783,94.099C117.948,93.944 116.643,95.524 117.044,99.112C117.172,100.263 117.064,101.442 117.064,103.576M106.441,94.142C101.779,94.142 97.11,94.003 92.459,94.225C91.023,94.293 88.698,95.028 88.373,95.994C86.011,103.008 84.012,110.153 85.378,117.635L114.681,117.635L114.681,94.143C112.006,94.143 109.71,94.143 106.441,94.142M117.238,131.491L117.238,141.915C125.572,141.915 133.044,142.007 140.509,141.817C141.652,141.788 143.514,140.656 143.765,139.699C145.416,133.411 146.716,127.031 148.197,120.383L117.238,120.383C117.238,123.94 117.238,127.226 117.238,131.491M100.53,141.9L114.913,141.9L114.913,120.341L84.742,120.341C85.172,123.859 85.425,127.12 85.99,130.326C88.028,141.907 88.068,141.9 100.53,141.9M96.499,82.002C94.552,85.065 92.605,88.127 90.319,91.722L114.806,91.722L114.806,70.955C107.382,72.274 101.396,75.498 96.499,82.002M126.452,73.93C123.812,72.885 121.173,71.839 118.323,70.71L118.323,91.907L141.814,91.907C138.429,84.518 134.203,78.164 126.452,73.93M91.642,145.056C96.394,154.896 102.893,162.571 114.649,163.966L114.649,145.007C107.019,145.007 99.738,145.007 91.642,145.056M137.97,150.328C138.877,148.654 139.785,146.979 140.661,145.363L118.296,145.363L118.296,163.877C126.921,162.498 132.969,157.803 137.97,150.328M150.004,110.593L150.004,116.711L164.019,116.711C161.952,109.112 160.033,102.058 158.181,95.248L147.379,95.248C148.278,100.185 149.141,104.92 150.004,110.593M82.996,104.685C83.78,101.496 84.563,98.307 85.375,95.002C83.35,95.002 81.303,94.732 79.372,95.087C77.838,95.369 75.523,96.091 75.142,97.176C72.927,103.47 71.182,109.929 69.181,116.659L81.625,116.659C82.113,112.715 82.555,109.146 82.996,104.685M150.004,125.411C148.988,130.569 147.972,135.726 146.934,140.998C149.04,140.998 151.726,141.357 154.247,140.866C155.805,140.563 157.891,139.254 158.393,137.898C160.367,132.563 161.806,127.031 163.615,121.002C159.547,121.002 156.24,121.245 152.985,120.932C149.872,120.632 149.838,122.336 150.004,125.411M82.954,127.674C82.461,125.524 81.968,123.374 81.476,121.231L69.736,121.231C71.871,128.121 73.884,134.618 75.831,140.904L85.35,140.904C84.56,136.754 83.779,132.654 82.954,127.674M142.048,85.462C144.07,91.051 147.875,93.431 153.798,91.977C154.055,91.914 154.287,91.752 154.995,91.415C149.876,84.783 144.501,78.847 135.497,75.675C138.047,79.227 140.011,81.963 142.048,85.462Z" style="fill:#060809;fill-rule:nonzero;"/>
                    <path d="M117.064,103.092C117.064,101.442 117.172,100.263 117.044,99.112C116.643,95.524 117.948,93.944 121.783,94.099C127.77,94.34 133.784,93.975 139.764,94.289C141.357,94.373 143.929,95.727 144.242,96.958C145.938,103.617 147.066,110.421 148.489,117.68L117.064,117.68C117.064,112.805 117.064,108.19 117.064,103.092Z" style="fill:#10773c;fill-rule:nonzero;"/>
                    <path d="M106.928,94.142C109.71,94.143 112.006,94.143 114.681,94.143L114.681,117.635L85.378,117.635C84.012,110.153 86.011,103.008 88.373,95.994C88.698,95.028 91.023,94.293 92.459,94.225C97.11,94.003 101.779,94.142 106.928,94.142Z" style="fill:#26276d;fill-rule:nonzero;"/>
                    <path d="M117.238,131.001C117.238,127.226 117.238,123.94 117.238,120.383L148.197,120.383C146.716,127.031 145.416,133.411 143.765,139.699C143.514,140.656 141.652,141.788 140.509,141.817C133.044,142.007 125.572,141.915 117.238,141.915C117.238,138.289 117.238,134.89 117.238,131.001Z" style="fill:#e71c24;fill-rule:nonzero;"/>
                    <path d="M100.038,141.9C88.068,141.9 88.028,141.907 85.99,130.326C85.425,127.12 85.172,123.859 84.742,120.341L114.913,120.341L114.913,141.9L100.038,141.9Z" style="fill:#f0e91a;fill-rule:nonzero;"/>
                    <path d="M96.759,81.737C101.396,75.498 107.382,72.274 114.806,70.955L114.806,91.722L90.319,91.722C92.605,88.127 94.552,85.065 96.759,81.737Z" style="fill:#fff;fill-rule:nonzero;"/>
                    <path d="M126.834,73.976C134.203,78.164 138.429,84.518 141.814,91.907L118.323,91.907L118.323,70.71C121.173,71.839 123.812,72.885 126.834,73.976Z" style="fill:#fff;fill-rule:nonzero;"/>
                    <path d="M92.05,145.031C99.738,145.007 107.019,145.007 114.649,145.007L114.649,163.966C102.893,162.571 96.394,154.896 92.05,145.031Z" style="fill:#fff;fill-rule:nonzero;"/>
                    <path d="M137.762,150.641C132.969,157.803 126.921,162.498 118.296,163.877L118.296,145.363L140.661,145.363C139.785,146.979 138.877,148.654 137.762,150.641Z" style="fill:#fff;fill-rule:nonzero;"/>
                    <path d="M150.004,110.124C149.141,104.92 148.278,100.185 147.379,95.248L158.181,95.248C160.033,102.058 161.952,109.112 164.019,116.711L150.004,116.711C150.004,114.766 150.004,112.68 150.004,110.124Z" style="fill:#fff;fill-rule:nonzero;"/>
                    <path d="M82.996,105.131C82.555,109.146 82.113,112.715 81.625,116.659L69.181,116.659C71.182,109.929 72.927,103.47 75.142,97.176C75.523,96.091 77.838,95.369 79.372,95.087C81.303,94.732 83.35,95.002 85.375,95.002C84.563,98.307 83.78,101.496 82.996,105.131Z" style="fill:#fff;fill-rule:nonzero;"/>
                    <path d="M150.004,124.948C149.838,122.336 149.872,120.632 152.985,120.932C156.24,121.245 159.547,121.002 163.615,121.002C161.806,127.031 160.367,132.563 158.393,137.898C157.891,139.254 155.805,140.563 154.247,140.866C151.726,141.357 149.04,140.998 146.934,140.998C147.972,135.726 148.988,130.569 150.004,124.948Z" style="fill:#fff;fill-rule:nonzero;"/>
                    <path d="M82.976,128.114C83.779,132.654 84.56,136.754 85.35,140.904L75.831,140.904C73.884,134.618 71.871,128.121 69.736,121.231L81.476,121.231C81.968,123.374 82.461,125.524 82.976,128.114Z" style="fill:#fffffe;fill-rule:nonzero;"/>
                    <path d="M142.012,85.081C140.011,81.963 138.047,79.227 135.497,75.675C144.501,78.847 149.876,84.783 154.995,91.415C154.287,91.752 154.055,91.914 153.798,91.977C147.875,93.431 144.07,91.051 142.012,85.081Z" style="fill:#fff;fill-rule:nonzero;"/>
                    <path d="M95.771,77.584C92.559,82.188 89.347,86.791 85.798,91.878L78.325,91.878C81.938,84.954 87.867,80.764 94.77,77.136C95.479,77.376 95.625,77.48 95.771,77.584Z" style="fill:#fff;fill-rule:nonzero;"/>
                    <path d="M136.229,158.416C139.151,154.098 142.074,149.781 145.249,145.09L153.421,145.09C153.701,145.453 153.982,145.816 154.262,146.179C148.773,150.453 143.283,154.727 137.23,158.864C136.521,158.624 136.375,158.52 136.229,158.416Z" style="fill:#fff;fill-rule:nonzero;"/>
                    <path d="M94.928,158.081C88.321,155.925 84.32,150.686 78.948,145.308L86.9,145.308C89.744,149.215 92.544,153.061 95.343,157.323C95.205,157.853 95.067,157.967 94.928,158.081Z" style="fill:#fff;fill-rule:nonzero;"/>
                    <path d="M95.566,157.589C96.106,157.879 96.422,158.319 96.739,158.758C96.201,158.719 95.662,158.68 95.026,158.361C95.067,157.967 95.205,157.853 95.566,157.589Z" style="fill:#fff;fill-rule:nonzero;"/>
                    <path d="M136.87,158.904C136.511,159.321 135.948,159.562 135.385,159.804C135.518,159.469 135.652,159.134 136.007,158.607C136.375,158.52 136.521,158.624 136.87,158.904Z" style="fill:#fff;fill-rule:nonzero;"/>
                    <path d="M95.13,77.096C95.489,76.679 96.052,76.438 96.615,76.196C96.482,76.531 96.348,76.866 95.993,77.393C95.625,77.48 95.479,77.376 95.13,77.096Z" style="fill:#fff;fill-rule:nonzero;"/>
                </g>
            </g>
        </g>
        <g transform="matrix(1,0,0,1,735.382,21.7935)">
            <g transform="matrix(50,0,0,50,445.318,587.406)">
                <path d="M0.476,-0.698L0.476,-0.208C0.476,-0.14 0.456,-0.087 0.417,-0.049C0.378,-0.012 0.325,0.007 0.259,0.007C0.192,0.007 0.138,-0.012 0.097,-0.051C0.056,-0.09 0.036,-0.144 0.036,-0.213L0.176,-0.213C0.177,-0.183 0.184,-0.16 0.197,-0.143C0.211,-0.126 0.231,-0.118 0.257,-0.118C0.282,-0.118 0.302,-0.126 0.315,-0.142C0.328,-0.158 0.335,-0.18 0.335,-0.208L0.335,-0.698L0.476,-0.698Z" style="fill:#2876bb;fill-rule:nonzero;"/>
            </g>
            <g transform="matrix(50,0,0,50,473.818,587.406)">
                <path d="M0.584,-0.289C0.584,-0.269 0.583,-0.251 0.58,-0.235L0.175,-0.235C0.178,-0.195 0.192,-0.164 0.217,-0.141C0.242,-0.118 0.272,-0.107 0.308,-0.107C0.36,-0.107 0.397,-0.129 0.419,-0.174L0.57,-0.174C0.554,-0.121 0.523,-0.077 0.478,-0.042C0.433,-0.008 0.377,0.009 0.311,0.009C0.258,0.009 0.21,-0.003 0.167,-0.026C0.125,-0.05 0.092,-0.084 0.068,-0.127C0.045,-0.17 0.033,-0.22 0.033,-0.277C0.033,-0.334 0.045,-0.385 0.068,-0.428C0.091,-0.471 0.124,-0.505 0.166,-0.528C0.208,-0.551 0.256,-0.563 0.311,-0.563C0.364,-0.563 0.411,-0.552 0.452,-0.529C0.494,-0.506 0.526,-0.474 0.549,-0.432C0.572,-0.391 0.584,-0.343 0.584,-0.289ZM0.439,-0.329C0.438,-0.365 0.425,-0.394 0.4,-0.415C0.375,-0.437 0.344,-0.448 0.307,-0.448C0.272,-0.448 0.243,-0.437 0.219,-0.416C0.196,-0.395 0.181,-0.366 0.176,-0.329L0.439,-0.329Z" style="fill:#2876bb;fill-rule:nonzero;"/>
            </g>
            <g transform="matrix(50,0,0,50,504.668,587.406)">
                <path d="M0.323,-0.439L0.226,-0.439L0.226,-0L0.084,-0L0.084,-0.439L0.021,-0.439L0.021,-0.554L0.084,-0.554L0.084,-0.582C0.084,-0.65 0.103,-0.7 0.142,-0.732C0.181,-0.764 0.239,-0.779 0.317,-0.777L0.317,-0.659C0.283,-0.66 0.259,-0.654 0.246,-0.642C0.233,-0.63 0.226,-0.608 0.226,-0.577L0.226,-0.554L0.323,-0.554L0.323,-0.439Z" style="fill:#2876bb;fill-rule:nonzero;"/>
            </g>
            <g transform="matrix(50,0,0,50,521.918,587.406)">
                <path d="M0.323,-0.439L0.226,-0.439L0.226,-0L0.084,-0L0.084,-0.439L0.021,-0.439L0.021,-0.554L0.084,-0.554L0.084,-0.582C0.084,-0.65 0.103,-0.7 0.142,-0.732C0.181,-0.764 0.239,-0.779 0.317,-0.777L0.317,-0.659C0.283,-0.66 0.259,-0.654 0.246,-0.642C0.233,-0.63 0.226,-0.608 0.226,-0.577L0.226,-0.554L0.323,-0.554L0.323,-0.439Z" style="fill:#2876bb;fill-rule:nonzero;"/>
            </g>
            <g transform="matrix(50,0,0,50,539.168,587.406)">
                <path d="M0.584,-0.289C0.584,-0.269 0.583,-0.251 0.58,-0.235L0.175,-0.235C0.178,-0.195 0.192,-0.164 0.217,-0.141C0.242,-0.118 0.272,-0.107 0.308,-0.107C0.36,-0.107 0.397,-0.129 0.419,-0.174L0.57,-0.174C0.554,-0.121 0.523,-0.077 0.478,-0.042C0.433,-0.008 0.377,0.009 0.311,0.009C0.258,0.009 0.21,-0.003 0.167,-0.026C0.125,-0.05 0.092,-0.084 0.068,-0.127C0.045,-0.17 0.033,-0.22 0.033,-0.277C0.033,-0.334 0.045,-0.385 0.068,-0.428C0.091,-0.471 0.124,-0.505 0.166,-0.528C0.208,-0.551 0.256,-0.563 0.311,-0.563C0.364,-0.563 0.411,-0.552 0.452,-0.529C0.494,-0.506 0.526,-0.474 0.549,-0.432C0.572,-0.391 0.584,-0.343 0.584,-0.289ZM0.439,-0.329C0.438,-0.365 0.425,-0.394 0.4,-0.415C0.375,-0.437 0.344,-0.448 0.307,-0.448C0.272,-0.448 0.243,-0.437 0.219,-0.416C0.196,-0.395 0.181,-0.366 0.176,-0.329L0.439,-0.329Z" style="fill:#2876bb;fill-rule:nonzero;"/>
            </g>
            <g transform="matrix(50,0,0,50,570.018,587.406)">
                <path d="M0.209,-0.468C0.227,-0.497 0.25,-0.52 0.279,-0.537C0.308,-0.554 0.342,-0.562 0.379,-0.562L0.379,-0.415L0.342,-0.415C0.298,-0.415 0.265,-0.405 0.242,-0.384C0.22,-0.363 0.209,-0.327 0.209,-0.276L0.209,-0L0.069,-0L0.069,-0.554L0.209,-0.554L0.209,-0.468Z" style="fill:#2876bb;fill-rule:nonzero;"/>
            </g>
            <g transform="matrix(50,0,0,50,590.218,587.406)">
                <path d="M0.281,0.009C0.236,0.009 0.195,0.001 0.159,-0.015C0.123,-0.032 0.094,-0.054 0.073,-0.082C0.052,-0.11 0.041,-0.141 0.039,-0.175L0.18,-0.175C0.183,-0.154 0.193,-0.136 0.211,-0.122C0.23,-0.108 0.253,-0.101 0.28,-0.101C0.307,-0.101 0.327,-0.106 0.342,-0.117C0.357,-0.128 0.365,-0.141 0.365,-0.158C0.365,-0.176 0.356,-0.189 0.337,-0.198C0.319,-0.207 0.29,-0.217 0.25,-0.228C0.209,-0.238 0.175,-0.248 0.148,-0.259C0.122,-0.27 0.099,-0.286 0.08,-0.308C0.061,-0.33 0.052,-0.36 0.052,-0.397C0.052,-0.428 0.061,-0.456 0.078,-0.481C0.096,-0.506 0.121,-0.526 0.154,-0.541C0.187,-0.556 0.226,-0.563 0.271,-0.563C0.337,-0.563 0.39,-0.546 0.429,-0.513C0.468,-0.48 0.49,-0.436 0.494,-0.38L0.36,-0.38C0.358,-0.402 0.349,-0.419 0.332,-0.432C0.316,-0.445 0.294,-0.452 0.267,-0.452C0.242,-0.452 0.222,-0.447 0.208,-0.438C0.195,-0.429 0.188,-0.416 0.188,-0.399C0.188,-0.38 0.197,-0.366 0.216,-0.356C0.235,-0.347 0.264,-0.337 0.303,-0.327C0.343,-0.317 0.376,-0.307 0.402,-0.296C0.428,-0.285 0.45,-0.269 0.469,-0.246C0.488,-0.224 0.498,-0.195 0.499,-0.158C0.499,-0.126 0.49,-0.097 0.472,-0.072C0.455,-0.047 0.429,-0.027 0.396,-0.012C0.363,0.002 0.325,0.009 0.281,0.009Z" style="fill:#2876bb;fill-rule:nonzero;"/>
            </g>
            <g transform="matrix(50,0,0,50,617.468,587.406)">
                <path d="M0.315,0.009C0.262,0.009 0.214,-0.003 0.171,-0.026C0.128,-0.05 0.095,-0.084 0.07,-0.127C0.046,-0.17 0.034,-0.22 0.034,-0.277C0.034,-0.334 0.046,-0.384 0.071,-0.427C0.096,-0.47 0.131,-0.504 0.174,-0.527C0.217,-0.551 0.266,-0.563 0.319,-0.563C0.372,-0.563 0.421,-0.551 0.464,-0.527C0.507,-0.504 0.541,-0.47 0.566,-0.427C0.591,-0.384 0.604,-0.334 0.604,-0.277C0.604,-0.22 0.591,-0.17 0.565,-0.127C0.54,-0.084 0.505,-0.05 0.461,-0.026C0.418,-0.003 0.369,0.009 0.315,0.009ZM0.315,-0.113C0.34,-0.113 0.364,-0.119 0.386,-0.131C0.409,-0.144 0.427,-0.162 0.44,-0.187C0.453,-0.212 0.46,-0.242 0.46,-0.277C0.46,-0.33 0.446,-0.37 0.418,-0.398C0.391,-0.427 0.357,-0.441 0.317,-0.441C0.277,-0.441 0.243,-0.427 0.216,-0.398C0.189,-0.37 0.176,-0.33 0.176,-0.277C0.176,-0.224 0.189,-0.184 0.215,-0.155C0.242,-0.127 0.275,-0.113 0.315,-0.113Z" style="fill:#2876bb;fill-rule:nonzero;"/>
            </g>
            <g transform="matrix(50,0,0,50,649.368,587.406)">
                <path d="M0.376,-0.562C0.442,-0.562 0.495,-0.541 0.536,-0.499C0.577,-0.458 0.597,-0.4 0.597,-0.325L0.597,-0L0.457,-0L0.457,-0.306C0.457,-0.35 0.446,-0.384 0.424,-0.407C0.402,-0.431 0.372,-0.443 0.334,-0.443C0.295,-0.443 0.265,-0.431 0.242,-0.407C0.22,-0.384 0.209,-0.35 0.209,-0.306L0.209,-0L0.069,-0L0.069,-0.554L0.209,-0.554L0.209,-0.485C0.228,-0.509 0.251,-0.528 0.28,-0.541C0.309,-0.555 0.341,-0.562 0.376,-0.562Z" style="fill:#2876bb;fill-rule:nonzero;"/>
            </g>
        </g>
        <g transform="matrix(1,0,0,1,732.932,72.2435)">
            <g transform="matrix(50,0,0,50,445.318,587.406)">
                <path d="M0.189,-0.603L0.189,-0.399L0.429,-0.399L0.429,-0.306L0.189,-0.306L0.189,-0.093L0.459,-0.093L0.459,-0L0.075,-0L0.075,-0.696L0.459,-0.696L0.459,-0.603L0.189,-0.603Z" style="fill-rule:nonzero;"/>
            </g>
            <g transform="matrix(50,0,0,50,471.518,587.406)">
                <path d="M0.304,0.007C0.257,0.007 0.215,-0.001 0.178,-0.017C0.141,-0.034 0.111,-0.057 0.09,-0.087C0.069,-0.117 0.058,-0.152 0.058,-0.192L0.18,-0.192C0.183,-0.162 0.194,-0.137 0.215,-0.118C0.236,-0.099 0.266,-0.089 0.304,-0.089C0.343,-0.089 0.374,-0.098 0.396,-0.117C0.418,-0.136 0.429,-0.161 0.429,-0.191C0.429,-0.214 0.422,-0.233 0.408,-0.248C0.395,-0.263 0.378,-0.274 0.357,-0.282C0.337,-0.29 0.309,-0.299 0.273,-0.308C0.228,-0.32 0.191,-0.332 0.162,-0.344C0.134,-0.357 0.11,-0.376 0.09,-0.402C0.07,-0.428 0.06,-0.463 0.06,-0.506C0.06,-0.546 0.07,-0.581 0.09,-0.611C0.11,-0.641 0.138,-0.664 0.174,-0.68C0.21,-0.696 0.252,-0.704 0.299,-0.704C0.366,-0.704 0.421,-0.687 0.464,-0.653C0.507,-0.62 0.531,-0.574 0.536,-0.515L0.41,-0.515C0.408,-0.54 0.396,-0.562 0.374,-0.58C0.352,-0.598 0.323,-0.607 0.287,-0.607C0.254,-0.607 0.228,-0.599 0.207,-0.582C0.186,-0.565 0.176,-0.541 0.176,-0.51C0.176,-0.489 0.182,-0.471 0.195,-0.457C0.208,-0.444 0.225,-0.433 0.245,-0.425C0.265,-0.417 0.292,-0.408 0.327,-0.399C0.373,-0.386 0.41,-0.374 0.439,-0.361C0.468,-0.348 0.493,-0.329 0.513,-0.302C0.534,-0.276 0.544,-0.241 0.544,-0.197C0.544,-0.162 0.534,-0.128 0.515,-0.097C0.496,-0.066 0.469,-0.04 0.432,-0.021C0.396,-0.002 0.353,0.007 0.304,0.007Z" style="fill-rule:nonzero;"/>
            </g>
            <g transform="matrix(50,0,0,50,501.718,587.406)">
                <path d="M0.302,-0.695C0.376,-0.695 0.441,-0.681 0.496,-0.652C0.552,-0.624 0.595,-0.583 0.625,-0.53C0.656,-0.477 0.671,-0.416 0.671,-0.345C0.671,-0.274 0.656,-0.213 0.625,-0.161C0.595,-0.109 0.552,-0.069 0.496,-0.041C0.441,-0.014 0.376,-0 0.302,-0L0.075,-0L0.075,-0.695L0.302,-0.695ZM0.302,-0.093C0.383,-0.093 0.446,-0.115 0.489,-0.159C0.532,-0.203 0.554,-0.265 0.554,-0.345C0.554,-0.426 0.532,-0.489 0.489,-0.534C0.446,-0.579 0.383,-0.602 0.302,-0.602L0.189,-0.602L0.189,-0.093L0.302,-0.093Z" style="fill-rule:nonzero;"/>
            </g>
        </g>
    </g>
</svg>
