<svg version="1.1" id="Layer_1" xmlns="http://www.w3.org/2000/svg" xmlns:xlink="http://www.w3.org/1999/xlink" x="0px" y="0px"
	 width="100%" viewBox="0 0 234 237" enable-background="new 0 0 234 237" xml:space="preserve">
<path fill="#FFFFFF" opacity="1.000000" stroke="none" 
	d="
M135.000000,238.000000 
	C90.000000,238.000000 45.500004,238.000000 1.000006,238.000000 
	C1.000004,159.000000 1.000004,80.000015 1.000002,1.000017 
	C78.999992,1.000011 156.999985,1.000011 234.999969,1.000005 
	C234.999985,79.999985 234.999985,158.999969 235.000000,237.999969 
	C201.833328,238.000000 168.666672,238.000000 135.000000,238.000000 
M36.549435,151.956589 
	C38.728851,150.909317 40.002460,151.259811 42.061497,153.182388 
	C45.830952,156.702026 50.583122,159.169205 54.705559,162.796280 
	C55.776360,167.324341 56.801083,171.864014 57.937229,176.375610 
	C58.512966,178.661850 60.587616,182.012268 59.762539,182.972748 
	C54.864845,188.674194 51.976196,196.374023 44.236622,199.451324 
	C43.580246,199.712280 42.895473,201.964310 43.222038,202.289719 
	C44.940762,204.002380 45.892273,207.904694 49.719471,204.875565 
	C51.876598,203.168228 54.448589,201.985062 56.997402,200.468369 
	C56.997402,203.565475 56.997402,206.426117 56.997402,209.794312 
	C56.494999,210.084961 55.105556,210.888809 53.313583,211.925522 
	C60.579773,215.812805 61.246399,215.527573 63.072166,208.840363 
	C63.665127,206.668549 64.417160,204.529343 65.247604,202.435165 
	C68.143806,195.131592 73.778664,191.523605 80.196175,191.898788 
	C84.389984,192.143951 88.644318,191.353897 93.166939,191.664413 
	C97.316879,198.774506 104.722153,199.847824 111.029449,201.348160 
	C111.029449,210.309921 111.029449,218.927612 111.029449,227.774963 
	C112.769859,227.774963 115.204491,227.774963 117.639565,227.774963 
	C117.902840,226.587173 118.132797,225.549652 118.457382,224.085220 
	C119.861115,231.111298 124.546860,226.808563 128.135666,227.020981 
	C126.918793,225.709381 125.701920,224.397797 125.396545,224.068649 
	C125.396545,215.572006 125.396545,208.057800 125.396545,200.570572 
	C133.074951,198.643051 139.076309,195.649933 143.139648,189.001953 
	C149.711487,189.405136 156.283325,189.808319 162.923981,190.215729 
	C167.247025,196.070389 171.937210,202.422287 176.411713,208.482086 
	C175.816620,209.903214 175.295929,211.146683 174.699173,212.571808 
	C181.467255,212.977768 183.691086,210.591232 182.449753,204.944458 
	C182.240768,203.993790 182.093796,203.029465 182.307449,201.712311 
	C182.420120,201.576416 182.532791,201.440506 183.184769,201.768738 
	C184.237228,203.785629 185.289688,205.802505 186.336121,207.807831 
	C193.221375,204.515701 193.507950,203.284424 188.932983,197.436508 
	C185.271820,192.756683 181.600357,188.084808 177.912033,183.426376 
	C176.638351,181.817657 176.793823,180.664337 177.551773,178.491898 
	C179.600388,172.620193 180.544754,166.363190 182.659286,160.048019 
	C187.584320,156.192947 192.509369,152.337891 197.150055,148.705399 
	C198.725403,148.823059 200.376755,148.946411 202.739441,149.280243 
	C205.782181,152.335953 208.824936,155.391678 212.368011,158.949844 
	C214.176651,155.876160 215.541336,153.556961 217.169006,150.790833 
	C218.413010,151.408035 220.087982,151.996323 221.456497,153.001724 
	C222.399689,153.694641 222.918549,154.965149 223.627029,155.977539 
	C224.417282,154.715256 225.468857,153.538437 225.918137,152.164658 
	C226.302917,150.988022 225.997818,149.585770 225.997818,148.749268 
	C222.976349,147.453140 220.456940,146.372391 217.937531,145.291641 
	C218.076385,145.041229 218.215240,144.790833 218.354095,144.540436 
	C221.506332,144.706833 224.658554,144.873230 228.166245,145.058380 
	C227.955002,141.645630 227.789169,138.966446 227.538773,134.921158 
	C225.358612,137.375336 224.217377,138.660004 222.879684,140.165817 
	C221.789001,139.723938 219.676971,139.399857 219.567581,138.742538 
	C218.340027,131.365585 212.629410,134.671829 208.657639,134.038071 
	C207.148651,133.797287 205.553436,134.096741 203.150452,134.018127 
	C202.101151,133.245087 200.535980,132.694916 200.089493,131.661438 
	C197.839523,126.453613 195.881226,121.119766 194.217010,115.227303 
	C196.241272,108.829964 198.265518,102.432625 200.600555,95.053108 
	C206.785751,93.223770 214.423325,90.964882 222.228882,88.656311 
	C222.732147,89.091286 223.964645,90.156540 225.595596,91.566170 
	C226.435593,83.002335 226.435593,83.002174 219.188736,82.999512 
	C217.297272,82.998817 215.405807,82.999413 213.016068,82.999413 
	C215.329849,80.283485 217.123901,78.177620 219.307190,75.711121 
	C219.419968,75.574883 219.532761,75.438637 220.198013,75.720444 
	C221.099426,75.250183 222.000854,74.779922 222.902267,74.309654 
	C221.785248,72.845299 220.890961,71.078400 219.467438,70.030388 
	C218.617645,69.404778 216.676773,69.429161 215.673050,69.978111 
	C208.522659,73.888748 201.487457,78.009956 196.599213,80.812332 
	C188.593140,76.746765 182.804810,73.807388 177.004761,70.044243 
	C174.759201,63.687080 172.513641,57.329910 170.207123,50.800163 
	C172.057938,49.507645 174.502823,47.624268 177.120193,46.022808 
	C179.643814,44.478714 182.345535,43.225697 184.969009,41.844803 
	C183.059265,39.249908 181.149521,36.655018 178.721939,33.356518 
	C180.312958,32.180752 182.091599,30.752028 183.994705,29.514742 
	C184.784760,29.001093 185.840714,28.896456 186.775757,28.605822 
	C186.277878,27.671206 186.012726,26.413940 185.241806,25.857914 
	C181.932022,23.470747 178.492264,21.260294 175.045456,19.071112 
	C174.614670,18.797512 173.860077,19.033749 174.362717,19.033749 
	C172.978683,22.868498 171.849533,25.997011 170.782059,28.954681 
	C166.880798,27.599234 164.211319,26.671757 161.718674,25.805719 
	C160.533051,32.101677 159.433411,37.940945 158.328339,43.809128 
	C150.893784,41.765244 144.299149,40.734020 137.202164,43.679852 
	C134.382019,41.766224 131.660385,39.682083 128.717041,37.981720 
	C124.959396,35.810940 122.127922,33.564014 122.880722,28.413383 
	C123.475052,24.346909 123.053467,20.122896 122.963577,15.971437 
	C122.939171,14.844278 122.481735,13.726496 122.452362,13.599085 
	C123.813881,12.640814 125.250191,11.629904 126.686501,10.618995 
	C126.044250,9.914704 125.402000,9.210413 124.759743,8.506123 
	C121.324066,7.366123 117.440918,4.502173 116.612938,11.590920 
	C116.340889,13.920074 115.047791,16.129967 114.294968,18.193316 
	C112.313332,15.834415 110.246918,13.374602 108.322556,11.083893 
	C108.578758,10.475856 109.067993,9.314754 109.557228,8.153651 
	C107.925774,8.017927 106.031708,7.316703 104.741524,7.915854 
	C103.599648,8.446128 102.133385,10.938463 102.517761,11.682526 
	C106.294312,18.992950 107.734238,26.683537 107.126617,33.772114 
	C102.334389,37.813004 98.001221,41.466808 92.871201,45.027100 
	C86.162560,42.960308 79.716637,44.409130 73.214539,46.223415 
	C71.897202,46.591000 69.847404,45.931347 68.734512,45.016403 
	C67.437416,43.950005 66.909569,42.000557 65.853386,40.578793 
	C62.490295,36.051628 59.036892,31.591555 55.846405,27.404797 
	C52.425377,29.859980 48.989738,32.276215 45.622616,34.784420 
	C44.960133,35.277912 44.083675,36.188881 44.162937,36.795296 
	C44.262375,37.556068 45.145615,38.339256 45.870716,38.863708 
	C46.920689,39.623138 48.479645,39.889027 49.216339,40.836143 
	C53.015110,45.719955 56.620747,50.753994 59.812508,55.082878 
	C57.854214,60.716545 55.915962,66.292549 53.321270,72.152580 
	C47.881161,76.071686 42.441055,79.990791 36.787682,84.063538 
	C31.249468,82.225151 24.855619,80.124138 18.479687,77.970100 
	C17.024298,77.478409 14.665368,77.591141 15.902349,74.831406 
	C14.682272,74.641953 12.973530,73.844307 12.324593,74.365700 
	C9.082187,76.970848 9.618555,79.988647 11.689974,83.291618 
	C11.574782,83.427658 11.459590,83.563690 10.772585,83.259178 
	C7.333326,83.281578 6.392890,85.795952 7.182062,88.202385 
	C7.795717,90.073601 9.761045,92.210617 11.602273,92.844109 
	C18.564753,95.239586 25.721569,97.070221 30.745697,98.518433 
	C34.311024,106.094727 37.146862,112.120865 39.712467,118.798714 
	C38.141376,123.681999 36.678871,128.604294 34.945618,133.429337 
	C34.255047,135.351746 32.965862,137.059113 31.224403,138.963913 
	C26.916815,139.505692 22.609226,140.047455 19.673725,140.416672 
	C17.728258,143.307587 16.710690,146.301239 14.662972,147.436111 
	C12.706607,148.520355 9.678039,147.669968 6.987689,147.669968 
	C8.946116,152.503799 10.853675,157.212067 13.111534,162.784973 
	C16.819778,158.479141 20.317963,151.562500 26.219868,161.142654 
	C29.008200,157.395020 31.223904,154.327576 33.589306,151.380249 
	C33.818581,151.094559 34.974171,151.552292 36.549435,151.956589 
z"/>
<path fill="#603813" opacity="1.000000" stroke="none" 
	d="
M137.783173,43.980232 
	C144.299149,40.734020 150.893784,41.765244 158.328339,43.809128 
	C159.433411,37.940945 160.533051,32.101677 161.718674,25.805719 
	C164.211319,26.671757 166.880798,27.599234 170.782059,28.954681 
	C171.849533,25.997011 172.978683,22.868498 174.362717,19.033749 
	C173.860077,19.033749 174.614670,18.797512 175.045456,19.071112 
	C178.492264,21.260294 181.932022,23.470747 185.241806,25.857914 
	C186.012726,26.413940 186.277878,27.671206 186.775757,28.605822 
	C185.840714,28.896456 184.784760,29.001093 183.994705,29.514742 
	C182.091599,30.752028 180.312958,32.180752 178.721939,33.356518 
	C181.149521,36.655018 183.059265,39.249908 184.969009,41.844803 
	C182.345535,43.225697 179.643814,44.478714 177.120193,46.022808 
	C174.502823,47.624268 172.057938,49.507645 170.207123,50.800163 
	C172.513641,57.329910 174.759201,63.687080 176.614899,70.544296 
	C175.418167,71.060501 174.611298,71.076660 173.807358,70.722168 
	C171.429459,66.213890 169.048645,62.076271 166.667831,57.938648 
	C164.485687,62.123135 157.826813,66.630844 154.437729,65.950378 
	C151.690170,65.398712 149.471985,64.221512 149.965927,60.703934 
	C150.171967,59.236694 150.139694,57.700611 149.972733,56.223297 
	C149.544815,52.436913 151.021927,50.624016 155.033081,51.359451 
	C155.596329,51.700024 156.054581,51.763947 156.512848,51.827873 
	C156.261063,51.351311 156.009293,50.874744 155.513733,50.122383 
	C150.202682,48.592316 145.135406,47.338051 139.739838,45.995182 
	C138.868759,45.264462 138.325958,44.622349 137.783173,43.980232 
M164.969406,57.706833 
	C164.479065,57.597809 163.988724,57.488785 163.498383,57.379761 
	C163.859985,57.712009 164.221603,58.044258 164.969406,57.706833 
z"/>
<path fill="#374EA1" opacity="1.000000" stroke="none" 
	d="
M12.077497,82.923126 
	C9.618555,79.988647 9.082187,76.970848 12.324593,74.365700 
	C12.973530,73.844307 14.682272,74.641953 15.902349,74.831406 
	C14.665368,77.591141 17.024298,77.478409 18.479687,77.970100 
	C24.855619,80.124138 31.249468,82.225151 36.787682,84.063538 
	C42.441055,79.990791 47.881161,76.071686 53.894066,72.231796 
	C54.252110,73.537712 54.037361,74.764412 53.523525,76.130997 
	C50.262436,80.511665 47.300438,84.752441 44.237827,89.137268 
	C49.239620,90.332054 53.010456,91.232803 58.312710,92.499359 
	C56.199726,96.620636 55.067448,102.311134 52.350513,103.209587 
	C49.250027,104.234871 44.738064,100.991806 40.446026,99.463554 
	C40.446026,103.962875 40.446026,109.379295 40.446026,114.280312 
	C44.191204,115.032234 46.656078,115.527115 49.120949,116.021988 
	C49.079067,116.537544 49.037189,117.053108 48.995308,117.568665 
	C47.018845,118.074287 45.042377,118.579903 42.766281,118.946472 
	C41.638664,118.587280 40.810680,118.367142 39.982704,118.147011 
	C37.146862,112.120865 34.311024,106.094727 30.745697,98.518433 
	C25.721569,97.070221 18.564753,95.239586 11.602273,92.844109 
	C9.761045,92.210617 7.795717,90.073601 7.182062,88.202385 
	C6.392890,85.795952 7.333326,83.281578 11.279130,83.764359 
	C13.216249,84.993454 14.646824,85.717369 16.077398,86.441292 
	C16.260340,86.061295 16.443281,85.681290 16.626221,85.301292 
	C15.109980,84.508568 13.593738,83.715851 12.077497,82.923126 
z"/>
<path fill="#14A89D" opacity="1.000000" stroke="none" 
	d="
M173.804443,71.092819 
	C174.611298,71.076660 175.418167,71.060501 176.620758,70.956177 
	C182.804810,73.807388 188.593140,76.746765 196.599213,80.812332 
	C201.487457,78.009956 208.522659,73.888748 215.673050,69.978111 
	C216.676773,69.429161 218.617645,69.404778 219.467438,70.030388 
	C220.890961,71.078400 221.785248,72.845299 222.902267,74.309654 
	C222.000854,74.779922 221.099426,75.250183 219.739166,75.296463 
	C218.914215,74.764717 218.548111,74.656944 218.182037,74.549164 
	C218.427353,75.056694 218.672668,75.564224 218.917969,76.071754 
	C217.123901,78.177620 215.329849,80.283485 213.016068,82.999413 
	C215.405807,82.999413 217.297272,82.998817 219.188736,82.999512 
	C226.435593,83.002174 226.435593,83.002335 225.595596,91.566170 
	C223.964645,90.156540 222.732147,89.091286 222.228882,88.656311 
	C214.423325,90.964882 206.785751,93.223770 200.600555,95.053108 
	C198.265518,102.432625 196.241272,108.829964 193.683121,115.574417 
	C192.672241,116.584297 192.195267,117.247047 191.400238,117.719490 
	C189.411606,116.719345 187.741013,115.909500 186.070419,115.099655 
	C187.747360,114.690948 189.428055,114.296524 191.097488,113.859146 
	C191.368240,113.788216 191.589111,113.526825 192.848190,112.631981 
	C192.348831,107.302986 191.794296,101.385239 191.363083,96.783363 
	C187.260101,97.831337 183.266068,100.148201 180.445419,99.149841 
	C178.300125,98.390518 176.023132,92.998955 176.691193,90.414520 
	C177.823074,86.035805 182.622284,85.688705 186.937363,86.342941 
	C186.222107,84.082726 185.699936,82.048317 184.936691,80.108765 
	C183.719406,77.015465 178.170502,73.869202 175.765793,74.640038 
	C174.522751,75.038513 173.169785,75.094078 171.866486,75.304565 
	C172.512482,73.900650 173.158463,72.496735 173.804443,71.092819 
z"/>
<path fill="#01AEEE" opacity="1.000000" stroke="none" 
	d="
M181.918182,202.071457 
	C182.093796,203.029465 182.240768,203.993790 182.449753,204.944458 
	C183.691086,210.591232 181.467255,212.977768 174.699173,212.571808 
	C175.295929,211.146683 175.816620,209.903214 176.411713,208.482086 
	C171.937210,202.422287 167.247025,196.070389 162.923981,190.215729 
	C156.283325,189.808319 149.711487,189.405136 142.676788,188.573288 
	C141.334732,186.155319 140.455505,184.166031 139.996033,182.116135 
	C143.174103,185.488663 146.739746,187.349411 150.998520,185.825455 
	C154.676865,184.509186 158.050980,182.342743 161.183243,180.744202 
	C159.289291,177.471466 153.666016,176.542969 155.417114,171.385300 
	C156.473343,168.274231 159.378448,165.470978 162.793289,166.227020 
	C167.248672,167.213470 167.911209,171.539917 168.208542,175.567856 
	C175.589600,171.233826 177.112534,170.039749 178.008377,164.457947 
	C178.351624,162.319244 176.456329,159.821274 175.314514,156.775940 
	C177.154922,157.247589 178.891602,157.692657 180.717865,158.447433 
	C181.180710,159.257782 181.553940,159.758423 181.927185,160.259048 
	C180.544754,166.363190 179.600388,172.620193 177.551773,178.491898 
	C176.793823,180.664337 176.638351,181.817657 177.912033,183.426376 
	C181.600357,188.084808 185.271820,192.756683 188.932983,197.436508 
	C193.507950,203.284424 193.221375,204.515701 186.336121,207.807831 
	C185.289688,205.802505 184.237228,203.785629 182.733002,201.321838 
	C181.915421,200.766418 181.549606,200.657898 181.183792,200.549377 
	C181.428589,201.056732 181.673386,201.564102 181.918182,202.071457 
z"/>
<path fill="#0B9444" opacity="1.000000" stroke="none" 
	d="
M92.871536,191.027557 
	C88.644318,191.353897 84.389984,192.143951 80.196175,191.898788 
	C73.778664,191.523605 68.143806,195.131592 65.247604,202.435165 
	C64.417160,204.529343 63.665127,206.668549 63.072166,208.840363 
	C61.246399,215.527573 60.579773,215.812805 53.313583,211.925522 
	C55.105556,210.888809 56.494999,210.084961 56.997402,209.794312 
	C56.997402,206.426117 56.997402,203.565475 56.997402,200.468369 
	C54.448589,201.985062 51.876598,203.168228 49.719471,204.875565 
	C45.892273,207.904694 44.940762,204.002380 43.222038,202.289719 
	C42.895473,201.964310 43.580246,199.712280 44.236622,199.451324 
	C51.976196,196.374023 54.864845,188.674194 59.762539,182.972748 
	C60.587616,182.012268 58.512966,178.661850 57.937229,176.375610 
	C56.801083,171.864014 55.776360,167.324341 54.997749,162.176025 
	C56.132713,160.379639 56.975487,159.203506 57.988640,157.701599 
	C59.099747,157.557800 60.040470,157.739746 60.981194,157.921707 
	C60.051788,159.938812 59.122383,161.955902 58.192982,163.973007 
	C57.605698,164.028854 57.018417,164.084702 56.431137,164.140549 
	C60.125214,168.965958 63.819294,173.791382 68.214767,179.533020 
	C68.955635,176.427414 68.932610,174.937897 69.624863,173.949265 
	C71.108223,171.830826 73.173119,168.214752 74.616295,168.388992 
	C77.225883,168.704056 79.918060,171.007858 81.883232,173.124283 
	C83.398079,174.755707 83.852570,177.371704 84.580490,179.084045 
	C81.454346,180.459244 78.338066,181.830093 75.376793,183.132751 
	C80.312180,188.665176 86.634361,188.192139 93.002396,188.328339 
	C93.027855,189.480301 92.949699,190.253922 92.871536,191.027557 
z"/>
<path fill="#8CC63F" opacity="1.000000" stroke="none" 
	d="
M137.492676,43.830040 
	C138.325958,44.622349 138.868759,45.264462 139.692551,46.386780 
	C139.179581,48.964283 138.385590,51.061581 137.591599,53.158878 
	C135.882370,44.335522 133.965576,43.502934 118.180183,42.352470 
	C118.950409,43.268452 119.953766,43.931396 120.129654,44.768250 
	C120.705162,47.506569 121.960098,50.708557 121.043938,52.952518 
	C120.371124,54.600449 116.530457,56.091084 114.407829,55.749363 
	C111.079781,55.213577 108.010178,53.072479 105.396385,51.871094 
	C107.096901,48.641357 108.462059,46.048561 109.899742,43.318020 
	C103.602654,41.982277 99.322861,45.111301 94.729813,47.938637 
	C94.189079,46.862362 93.928566,45.991486 93.668060,45.120613 
	C98.001221,41.466808 102.334389,37.813004 107.126617,33.772114 
	C107.734238,26.683537 106.294312,18.992950 102.517761,11.682526 
	C102.133385,10.938463 103.599648,8.446128 104.741524,7.915854 
	C106.031708,7.316703 107.925774,8.017927 109.557228,8.153652 
	C109.067993,9.314754 108.578758,10.475856 108.322556,11.083893 
	C110.246918,13.374602 112.313332,15.834415 114.294968,18.193316 
	C115.047791,16.129967 116.340889,13.920074 116.612938,11.590920 
	C117.440918,4.502173 121.324066,7.366123 124.759743,8.506123 
	C125.402000,9.210413 126.044250,9.914704 126.686501,10.618995 
	C125.250191,11.629904 123.813881,12.640814 122.452362,13.599085 
	C122.481735,13.726496 122.939171,14.844278 122.963577,15.971437 
	C123.053467,20.122896 123.475052,24.346909 122.880722,28.413383 
	C122.127922,33.564014 124.959396,35.810940 128.717041,37.981720 
	C131.660385,39.682083 134.382019,41.766224 137.492676,43.830040 
z"/>
<path fill="#F6941D" opacity="1.000000" stroke="none" 
	d="
M93.019241,191.345978 
	C92.949699,190.253922 93.027855,189.480301 93.045975,187.963715 
	C93.727608,185.849792 94.469269,184.478806 95.210930,183.107834 
	C95.630447,183.257401 96.049957,183.406967 96.469467,183.556549 
	C96.469467,185.836151 96.469467,188.115753 96.469467,191.879990 
	C102.408951,192.769608 108.802307,193.727203 115.195663,194.684814 
	C115.409119,194.251175 115.622566,193.817551 115.836021,193.383926 
	C110.063774,193.246170 111.390808,188.793671 112.299629,186.688263 
	C113.324989,184.312851 116.280640,181.744217 118.768066,181.289169 
	C121.799667,180.734573 123.909218,183.302963 124.079361,186.922760 
	C124.165306,188.751358 125.074692,190.541229 125.676308,192.565826 
	C124.779015,192.822525 123.657166,193.143478 122.535324,193.464417 
	C122.656113,193.922012 122.776901,194.379608 122.897682,194.837189 
	C127.245567,193.739227 131.630051,192.765549 135.928375,191.499329 
	C138.766159,190.663391 139.756531,188.825912 138.517685,185.776382 
	C138.149261,184.869522 139.184326,183.392502 139.576294,182.176727 
	C140.455505,184.166031 141.334732,186.155319 142.273529,188.512985 
	C139.076309,195.649933 133.074951,198.643051 125.396545,200.570572 
	C125.396545,208.057800 125.396545,215.572006 125.396545,224.068649 
	C125.701920,224.397797 126.918793,225.709381 128.135666,227.020981 
	C124.546860,226.808563 119.861115,231.111298 118.457382,224.085220 
	C118.132797,225.549652 117.902840,226.587173 117.639565,227.774963 
	C115.204491,227.774963 112.769859,227.774963 111.029449,227.774963 
	C111.029449,218.927612 111.029449,210.309921 111.029449,201.348160 
	C104.722153,199.847824 97.316879,198.774506 93.019241,191.345978 
z"/>
<path fill="#F16622" opacity="1.000000" stroke="none" 
	d="
M93.269630,45.073856 
	C93.928566,45.991486 94.189079,46.862362 94.726135,48.322922 
	C95.002678,50.402912 95.002678,51.893211 95.002678,53.383514 
	C94.654297,53.550777 94.305916,53.718040 93.957535,53.885307 
	C92.692642,52.045464 91.427742,50.205620 89.600433,47.547722 
	C85.473183,48.774765 80.790207,50.167027 77.276482,51.211662 
	C79.381485,54.022945 82.098236,56.212986 82.759804,58.907608 
	C83.544266,62.102772 77.512665,67.871025 74.363037,67.999619 
	C70.437553,68.159897 67.625587,65.353020 66.480911,59.980293 
	C59.658691,62.033401 59.003929,68.161926 57.120281,73.088455 
	C58.730267,74.562401 59.996582,75.721710 61.413967,77.019333 
	C57.844147,80.591347 55.888481,77.991165 53.822609,75.991112 
	C54.037361,74.764412 54.252110,73.537712 54.222282,72.089783 
	C55.915962,66.292549 57.854214,60.716545 59.812508,55.082878 
	C56.620747,50.753994 53.015110,45.719955 49.216339,40.836143 
	C48.479645,39.889027 46.920689,39.623138 45.870716,38.863708 
	C45.145615,38.339256 44.262375,37.556068 44.162937,36.795296 
	C44.083675,36.188881 44.960133,35.277912 45.622616,34.784420 
	C48.989738,32.276215 52.425377,29.859980 55.846405,27.404797 
	C59.036892,31.591555 62.490295,36.051628 65.853386,40.578793 
	C66.909569,42.000557 67.437416,43.950005 68.734512,45.016403 
	C69.847404,45.931347 71.897202,46.591000 73.214539,46.223415 
	C79.716637,44.409130 86.162560,42.960308 93.269630,45.073856 
z"/>
<path fill="#D42027" opacity="1.000000" stroke="none" 
	d="
M182.293243,160.153534 
	C181.553940,159.758423 181.180710,159.257782 180.909500,158.144073 
	C183.812042,154.387268 186.612579,151.243561 189.705765,147.771332 
	C180.815353,146.210327 180.556168,146.252350 179.236847,138.114166 
	C178.919113,136.154327 180.350571,132.897034 182.004913,131.831665 
	C186.089035,129.201614 189.694580,131.566910 192.530502,134.719421 
	C195.389801,128.798401 193.617126,123.349983 191.718292,117.909805 
	C192.195267,117.247047 192.672241,116.584297 193.484894,115.875839 
	C195.881226,121.119766 197.839523,126.453613 200.089493,131.661438 
	C200.535980,132.694916 202.101151,133.245087 203.522095,134.462036 
	C203.271851,139.627228 202.649979,144.348495 202.028107,149.069763 
	C200.376755,148.946411 198.725403,148.823059 197.150055,148.705399 
	C192.509369,152.337891 187.584320,156.192947 182.293243,160.153534 
z"/>
<path fill="#9F2063" opacity="1.000000" stroke="none" 
	d="
M57.818260,158.027374 
	C56.975487,159.203506 56.132713,160.379639 55.107719,161.815521 
	C50.583122,159.169205 45.830952,156.702026 42.061497,153.182388 
	C40.002460,151.259811 38.728851,150.909317 36.208252,151.386856 
	C34.561111,146.832870 33.255154,142.848633 31.949192,138.864380 
	C32.965862,137.059113 34.255047,135.351746 34.945618,133.429337 
	C36.678871,128.604294 38.141376,123.681999 39.847584,118.472862 
	C40.810680,118.367142 41.638664,118.587280 42.726482,119.346169 
	C41.259655,125.333130 39.699333,130.784943 42.352245,135.840012 
	C44.728016,134.882919 46.972500,133.444061 49.361557,133.139587 
	C53.094429,132.663864 56.040722,135.116760 56.455696,138.428513 
	C56.694439,140.333878 54.401791,143.047440 52.567127,144.582901 
	C50.748672,146.104828 48.074665,146.604477 45.833576,147.528717 
	C48.591454,155.524033 52.356731,158.683350 57.818260,158.027374 
z"/>
<path fill="#D42128" opacity="1.000000" stroke="none" 
	d="
M202.383774,149.175003 
	C202.649979,144.348495 203.271851,139.627228 203.945618,134.527954 
	C205.553436,134.096741 207.148651,133.797287 208.657639,134.038071 
	C212.629410,134.671829 218.340027,131.365585 219.567581,138.742538 
	C219.676971,139.399857 221.789001,139.723938 222.879684,140.165817 
	C224.217377,138.660004 225.358612,137.375336 227.538773,134.921158 
	C227.789169,138.966446 227.955002,141.645630 228.166245,145.058380 
	C224.658554,144.873230 221.506332,144.706833 218.354095,144.540436 
	C218.215240,144.790833 218.076385,145.041229 217.937531,145.291641 
	C220.456940,146.372391 222.976349,147.453140 225.997818,148.749268 
	C225.997818,149.585770 226.302917,150.988022 225.918137,152.164658 
	C225.468857,153.538437 224.417282,154.715256 223.627029,155.977539 
	C222.918549,154.965149 222.399689,153.694641 221.456497,153.001724 
	C220.087982,151.996323 218.413010,151.408035 217.169006,150.790833 
	C215.541336,153.556961 214.176651,155.876160 212.368011,158.949844 
	C208.824936,155.391678 205.782181,152.335953 202.383774,149.175003 
z"/>
<path fill="#9F2064" opacity="1.000000" stroke="none" 
	d="
M31.586800,138.914154 
	C33.255154,142.848633 34.561111,146.832870 35.783424,151.241028 
	C34.974171,151.552292 33.818581,151.094559 33.589306,151.380249 
	C31.223904,154.327576 29.008200,157.395020 26.219868,161.142654 
	C20.317963,151.562500 16.819778,158.479141 13.111534,162.784973 
	C10.853675,157.212067 8.946116,152.503799 6.987689,147.669968 
	C9.678039,147.669968 12.706607,148.520355 14.662972,147.436111 
	C16.710690,146.301239 17.728258,143.307587 19.673725,140.416672 
	C22.609226,140.047455 26.916815,139.505692 31.586800,138.914154 
z"/>
<path fill="#FFFFFF" opacity="1.000000" stroke="none" 
	d="
M57.988640,157.701599 
	C52.356731,158.683350 48.591454,155.524033 45.833576,147.528717 
	C48.074665,146.604477 50.748672,146.104828 52.567127,144.582901 
	C54.401791,143.047440 56.694439,140.333878 56.455696,138.428513 
	C56.040722,135.116760 53.094429,132.663864 49.361557,133.139587 
	C46.972500,133.444061 44.728016,134.882919 42.352245,135.840012 
	C39.699333,130.784943 41.259655,125.333130 43.026115,119.485229 
	C45.042377,118.579903 47.018845,118.074287 48.995308,117.568665 
	C49.037189,117.053108 49.079067,116.537544 49.120949,116.021988 
	C46.656078,115.527115 44.191204,115.032234 40.446026,114.280312 
	C40.446026,109.379295 40.446026,103.962875 40.446026,99.463554 
	C44.738064,100.991806 49.250027,104.234871 52.350513,103.209587 
	C55.067448,102.311134 56.199726,96.620636 58.312710,92.499359 
	C53.010456,91.232803 49.239620,90.332054 44.237827,89.137268 
	C47.300438,84.752441 50.262436,80.511665 53.523521,76.130997 
	C55.888481,77.991165 57.844147,80.591347 61.413967,77.019333 
	C59.996582,75.721710 58.730267,74.562401 57.120281,73.088455 
	C59.003929,68.161926 59.658691,62.033401 66.480911,59.980293 
	C67.625587,65.353020 70.437553,68.159897 74.363037,67.999619 
	C77.512665,67.871025 83.544266,62.102772 82.759804,58.907608 
	C82.098236,56.212986 79.381485,54.022945 77.276482,51.211662 
	C80.790207,50.167027 85.473183,48.774765 89.600433,47.547722 
	C91.427742,50.205620 92.692642,52.045464 93.957535,53.885307 
	C94.305916,53.718040 94.654297,53.550777 95.002678,53.383514 
	C95.002678,51.893211 95.002678,50.402912 95.006363,48.528328 
	C99.322861,45.111301 103.602654,41.982277 109.899742,43.318020 
	C108.462059,46.048561 107.096901,48.641357 105.396385,51.871094 
	C108.010178,53.072479 111.079781,55.213577 114.407829,55.749363 
	C116.530457,56.091084 120.371124,54.600449 121.043938,52.952518 
	C121.960098,50.708557 120.705162,47.506569 120.129654,44.768250 
	C119.953766,43.931396 118.950409,43.268452 118.180183,42.352470 
	C133.965576,43.502934 135.882370,44.335522 137.591599,53.158878 
	C138.385590,51.061581 139.179581,48.964283 140.020844,46.475384 
	C145.135406,47.338051 150.202682,48.592316 155.297607,50.282913 
	C155.192886,50.840427 155.060501,50.961613 154.928101,51.082802 
	C151.021927,50.624016 149.544815,52.436913 149.972733,56.223297 
	C150.139694,57.700611 150.171967,59.236694 149.965927,60.703934 
	C149.471985,64.221512 151.690170,65.398712 154.437729,65.950378 
	C157.826813,66.630844 164.485687,62.123135 166.667831,57.938648 
	C169.048645,62.076271 171.429459,66.213890 173.807358,70.722168 
	C173.158463,72.496735 172.512482,73.900650 171.866486,75.304565 
	C173.169785,75.094078 174.522751,75.038513 175.765793,74.640038 
	C178.170502,73.869202 183.719406,77.015465 184.936691,80.108765 
	C185.699936,82.048317 186.222107,84.082726 186.937363,86.342941 
	C182.622284,85.688705 177.823074,86.035805 176.691193,90.414520 
	C176.023132,92.998955 178.300125,98.390518 180.445419,99.149841 
	C183.266068,100.148201 187.260101,97.831337 191.363083,96.783363 
	C191.794296,101.385239 192.348831,107.302986 192.848190,112.631981 
	C191.589111,113.526825 191.368240,113.788216 191.097488,113.859146 
	C189.428055,114.296524 187.747360,114.690948 186.070419,115.099655 
	C187.741013,115.909500 189.411606,116.719345 191.400238,117.719498 
	C193.617126,123.349983 195.389801,128.798401 192.530502,134.719421 
	C189.694580,131.566910 186.089035,129.201614 182.004913,131.831665 
	C180.350571,132.897034 178.919113,136.154327 179.236847,138.114166 
	C180.556168,146.252350 180.815353,146.210327 189.705765,147.771332 
	C186.612579,151.243561 183.812042,154.387268 180.819885,157.834351 
	C178.891602,157.692657 177.154922,157.247589 175.314514,156.775940 
	C176.456329,159.821274 178.351624,162.319244 178.008377,164.457947 
	C177.112534,170.039749 175.589600,171.233826 168.208542,175.567856 
	C167.911209,171.539917 167.248672,167.213470 162.793289,166.227020 
	C159.378448,165.470978 156.473343,168.274231 155.417114,171.385300 
	C153.666016,176.542969 159.289291,177.471466 161.183243,180.744202 
	C158.050980,182.342743 154.676865,184.509186 150.998520,185.825455 
	C146.739746,187.349411 143.174103,185.488663 139.996033,182.116135 
	C139.184326,183.392502 138.149261,184.869522 138.517685,185.776382 
	C139.756531,188.825912 138.766159,190.663391 135.928375,191.499329 
	C131.630051,192.765549 127.245567,193.739227 122.897682,194.837189 
	C122.776901,194.379608 122.656113,193.922012 122.535324,193.464417 
	C123.657166,193.143478 124.779015,192.822525 125.676308,192.565826 
	C125.074692,190.541229 124.165306,188.751358 124.079361,186.922760 
	C123.909218,183.302963 121.799667,180.734573 118.768066,181.289169 
	C116.280640,181.744217 113.324989,184.312851 112.299629,186.688263 
	C111.390808,188.793671 110.063774,193.246170 115.836021,193.383926 
	C115.622566,193.817551 115.409119,194.251175 115.195663,194.684814 
	C108.802307,193.727203 102.408951,192.769608 96.469467,191.879990 
	C96.469467,188.115753 96.469467,185.836151 96.469467,183.556549 
	C96.049957,183.406967 95.630447,183.257401 95.210930,183.107834 
	C94.469269,184.478806 93.727608,185.849792 92.942368,187.585388 
	C86.634361,188.192139 80.312180,188.665176 75.376793,183.132751 
	C78.338066,181.830093 81.454346,180.459244 84.580490,179.084045 
	C83.852570,177.371704 83.398079,174.755707 81.883232,173.124283 
	C79.918060,171.007858 77.225883,168.704056 74.616295,168.388992 
	C73.173119,168.214752 71.108223,171.830826 69.624863,173.949265 
	C68.932610,174.937897 68.955635,176.427414 68.214767,179.533020 
	C63.819294,173.791382 60.125214,168.965958 56.431137,164.140549 
	C57.018417,164.084702 57.605698,164.028854 58.192982,163.973007 
	C59.122383,161.955902 60.051788,159.938812 60.981194,157.921707 
	C60.040470,157.739746 59.099747,157.557800 57.988640,157.701599 
M68.945770,104.425964 
	C64.886230,118.077499 66.839119,130.941925 74.008064,143.125259 
	C86.038300,163.570145 107.588943,170.391068 126.203011,166.667252 
	C150.442169,161.818100 168.514450,139.667267 166.127884,113.400772 
	C164.443939,94.867294 155.251572,81.532906 139.340836,73.282631 
	C122.263313,64.427322 104.796921,65.585579 88.681358,76.210175 
	C78.855949,82.687820 72.072800,91.950264 68.945770,104.425964 
z"/>
<path fill="#FFFFFF" opacity="1.000000" stroke="none" 
	d="
M164.776306,58.041672 
	C164.221603,58.044258 163.859985,57.712009 163.498383,57.379761 
	C163.988724,57.488785 164.479065,57.597809 164.776306,58.041672 
z"/>
<path fill="#FFFFFF" opacity="1.000000" stroke="none" 
	d="
M155.541382,50.558712 
	C156.009293,50.874744 156.261063,51.351311 156.512848,51.827873 
	C156.054581,51.763947 155.596329,51.700024 155.033081,51.359451 
	C155.060501,50.961613 155.192886,50.840427 155.541382,50.558712 
z"/>
<path fill="#FFFFFF" opacity="1.000000" stroke="none" 
	d="
M11.883735,83.107376 
	C13.593738,83.715851 15.109980,84.508568 16.626221,85.301292 
	C16.443281,85.681290 16.260340,86.061295 16.077398,86.441292 
	C14.646824,85.717369 13.216249,84.993454 11.565037,83.984634 
	C11.459590,83.563690 11.574782,83.427658 11.883735,83.107376 
z"/>
<path fill="#FFFFFF" opacity="1.000000" stroke="none" 
	d="
M219.112579,75.891434 
	C218.672668,75.564224 218.427353,75.056694 218.182037,74.549164 
	C218.548111,74.656944 218.914215,74.764717 219.462921,75.087448 
	C219.532761,75.438637 219.419968,75.574883 219.112579,75.891434 
z"/>
<path fill="#FFFFFF" opacity="1.000000" stroke="none" 
	d="
M182.112823,201.891876 
	C181.673386,201.564102 181.428589,201.056732 181.183792,200.549377 
	C181.549606,200.657898 181.915421,200.766418 182.463348,201.089752 
	C182.532791,201.440506 182.420120,201.576416 182.112823,201.891876 
z"/>
<path fill="#060809" opacity="1.000000" stroke="none" 
	d="
M68.969986,104.002754 
	C72.072800,91.950264 78.855949,82.687820 88.681358,76.210175 
	C104.796921,65.585579 122.263313,64.427322 139.340836,73.282631 
	C155.251572,81.532906 164.443939,94.867294 166.127884,113.400772 
	C168.514450,139.667267 150.442169,161.818100 126.203011,166.667252 
	C107.588943,170.391068 86.038300,163.570145 74.008064,143.125259 
	C66.839119,130.941925 64.886230,118.077499 68.969986,104.002754 
M95.123184,158.641006 
	C95.661850,158.680099 96.200516,158.719193 96.739182,158.758301 
	C96.422470,158.318588 96.105759,157.878891 95.343391,156.906540 
	C92.543884,153.060791 89.744377,149.215027 86.900162,145.307846 
	C84.897247,145.307846 82.521729,145.307846 78.948181,145.307846 
	C84.319778,150.685898 88.321075,155.925400 95.123184,158.641006 
M137.793396,159.000565 
	C143.282959,154.726852 148.772522,150.453125 154.262085,146.179413 
	C153.981644,145.816116 153.701202,145.452820 153.420761,145.089523 
	C150.472977,145.089523 147.525208,145.089523 145.248932,145.089523 
	C142.073685,149.780731 139.151382,154.098236 135.785263,158.798553 
	C135.651688,159.133743 135.518112,159.468933 135.384537,159.804123 
	C135.947617,159.562454 136.510681,159.320786 137.793396,159.000565 
M94.206581,76.999435 
	C87.866768,80.763947 81.937592,84.953941 78.324532,91.877708 
	C81.364700,91.877708 84.012466,91.877708 85.797646,91.877708 
	C89.346596,86.791420 92.558754,82.187820 96.214752,77.201401 
	C96.348320,76.866211 96.481888,76.531021 96.615463,76.195831 
	C96.052383,76.437515 95.489304,76.679199 94.206581,76.999435 
M117.063744,103.575539 
	C117.063744,108.190475 117.063744,112.805420 117.063744,117.680054 
	C127.584038,117.680054 137.464203,117.680054 148.488907,117.680054 
	C147.066254,110.421089 145.938400,103.617119 144.242310,96.957886 
	C143.928696,95.726547 141.357162,94.372841 139.763947,94.289078 
	C133.783813,93.974663 127.770088,94.340195 121.783165,94.098732 
	C117.948105,93.944046 116.643417,95.523598 117.043571,99.111740 
	C117.172005,100.263435 117.063812,101.441536 117.063744,103.575539 
M106.440567,94.142265 
	C101.778770,94.142227 97.110359,94.003418 92.459106,94.224892 
	C91.023071,94.293274 88.698143,95.028259 88.372780,95.994377 
	C86.010895,103.007645 84.011986,110.153320 85.378273,117.635132 
	C95.440437,117.635132 105.015305,117.635132 114.680527,117.635132 
	C114.680527,109.722725 114.680527,102.179535 114.680527,94.142593 
	C112.005653,94.142593 109.710236,94.142593 106.440567,94.142265 
M117.237556,131.491379 
	C117.237556,134.890137 117.237556,138.288879 117.237556,141.914551 
	C125.571846,141.914551 133.044098,142.006592 140.509201,141.817017 
	C141.652008,141.787994 143.513702,140.656097 143.765015,139.698792 
	C145.415848,133.410690 146.715897,127.030518 148.196686,120.382843 
	C137.187744,120.382843 127.469261,120.382843 117.237785,120.382843 
	C117.237785,123.940216 117.237785,127.225533 117.237556,131.491379 
M100.529739,141.899811 
	C105.305283,141.899811 110.080833,141.899811 114.913254,141.899811 
	C114.913254,134.384995 114.913254,127.467102 114.913254,120.341049 
	C104.888527,120.341049 95.136719,120.341049 84.741829,120.341049 
	C85.172249,123.859055 85.425308,127.119858 85.989647,130.325867 
	C88.028175,141.906799 88.067719,141.899841 100.529739,141.899811 
M96.499214,82.002449 
	C94.552055,85.064804 92.604904,88.127167 90.319016,91.722275 
	C99.072815,91.722275 106.912514,91.722275 114.805756,91.722275 
	C114.805756,84.687927 114.805756,77.930428 114.805756,70.954918 
	C107.382477,72.273643 101.396179,75.498238 96.499214,82.002449 
M126.451767,73.930428 
	C123.812157,72.884598 121.172554,71.838768 118.322914,70.709724 
	C118.322914,78.096100 118.322914,84.972275 118.322914,91.907166 
	C126.254723,91.907166 133.865067,91.907166 141.814178,91.907166 
	C138.428513,84.518204 134.202698,78.163902 126.451767,73.930428 
M91.642281,145.056030 
	C96.394379,154.895828 102.893387,162.570663 114.649048,163.966171 
	C114.649048,157.468155 114.649048,151.278595 114.649048,145.006531 
	C107.019112,145.006531 99.738304,145.006531 91.642281,145.056030 
M137.969940,150.327850 
	C138.877289,148.653671 139.784637,146.979492 140.660980,145.362518 
	C132.808731,145.362518 125.433899,145.362518 118.295967,145.362518 
	C118.295967,151.763794 118.295967,157.801987 118.295967,163.876938 
	C126.921204,162.497787 132.969101,157.802811 137.969940,150.327850 
M150.004349,110.593262 
	C150.004349,112.679733 150.004349,114.766212 150.004349,116.710701 
	C154.742050,116.710701 158.832901,116.710701 164.019180,116.710701 
	C161.952026,109.111984 160.033142,102.058273 158.180557,95.248337 
	C154.001358,95.248337 150.578293,95.248337 147.379089,95.248337 
	C148.278458,100.184845 149.141174,104.920143 150.004349,110.593262 
M82.996284,104.684685 
	C83.779633,101.495667 84.562981,98.306641 85.374825,95.001625 
	C83.349556,95.001625 81.303139,94.732185 79.371521,95.087257 
	C77.838013,95.369148 75.523247,96.091125 75.141586,97.175827 
	C72.927048,103.469711 71.182190,109.928856 69.181305,116.658943 
	C74.158501,116.658943 78.044876,116.658943 81.624939,116.658943 
	C82.113014,112.714638 82.554642,109.145699 82.996284,104.684685 
M150.004013,125.410927 
	C148.988098,130.568634 147.972183,135.726334 146.933792,140.998230 
	C149.039688,140.998230 151.726303,141.357239 154.247284,140.866104 
	C155.805405,140.562531 157.891449,139.253693 158.393097,137.897675 
	C160.366562,132.563263 161.805893,127.031258 163.614746,121.001801 
	C159.547379,121.001801 156.239655,121.245087 152.985489,120.931831 
	C149.871933,120.632118 149.837708,122.335533 150.004013,125.410927 
M82.953583,127.673935 
	C82.460670,125.523811 81.967751,123.373688 81.476456,121.230621 
	C77.752571,121.230621 74.071548,121.230621 69.736382,121.230621 
	C71.871094,128.121246 73.883766,134.617950 75.831108,140.903748 
	C79.656616,140.903748 82.622261,140.903748 85.350075,140.903748 
	C84.560043,136.753952 83.779480,132.653931 82.953583,127.673935 
M142.048431,85.461937 
	C144.070114,91.051064 147.874649,93.430717 153.798035,91.977127 
	C154.054672,91.914154 154.286957,91.751907 154.995071,91.414734 
	C149.875732,84.782890 144.500595,78.847076 135.496994,75.675415 
	C138.046661,79.227196 140.010696,81.963150 142.048431,85.461937 
z"/>
<path fill="#10773C" opacity="1.000000" stroke="none" 
	d="
M117.063812,103.091545 
	C117.063812,101.441536 117.172005,100.263435 117.043571,99.111740 
	C116.643417,95.523598 117.948105,93.944046 121.783165,94.098732 
	C127.770088,94.340195 133.783813,93.974663 139.763947,94.289078 
	C141.357162,94.372841 143.928696,95.726547 144.242310,96.957886 
	C145.938400,103.617119 147.066254,110.421089 148.488907,117.680054 
	C137.464203,117.680054 127.584038,117.680054 117.063744,117.680054 
	C117.063744,112.805420 117.063744,108.190475 117.063812,103.091545 
z"/>
<path fill="#26276D" opacity="1.000000" stroke="none" 
	d="
M106.927689,94.142426 
	C109.710236,94.142593 112.005653,94.142593 114.680527,94.142593 
	C114.680527,102.179535 114.680527,109.722725 114.680527,117.635132 
	C105.015305,117.635132 95.440437,117.635132 85.378273,117.635132 
	C84.011986,110.153320 86.010895,103.007645 88.372780,95.994377 
	C88.698143,95.028259 91.023071,94.293274 92.459106,94.224892 
	C97.110359,94.003418 101.778770,94.142227 106.927689,94.142426 
z"/>
<path fill="#E71C24" opacity="1.000000" stroke="none" 
	d="
M117.237671,131.001114 
	C117.237785,127.225533 117.237785,123.940216 117.237785,120.382843 
	C127.469261,120.382843 137.187744,120.382843 148.196686,120.382843 
	C146.715897,127.030518 145.415848,133.410690 143.765015,139.698792 
	C143.513702,140.656097 141.652008,141.787994 140.509201,141.817017 
	C133.044098,142.006592 125.571846,141.914551 117.237556,141.914551 
	C117.237556,138.288879 117.237556,134.890137 117.237671,131.001114 
z"/>
<path fill="#F0E91A" opacity="1.000000" stroke="none" 
	d="
M100.037567,141.899811 
	C88.067719,141.899841 88.028175,141.906799 85.989647,130.325867 
	C85.425308,127.119858 85.172249,123.859055 84.741829,120.341049 
	C95.136719,120.341049 104.888527,120.341049 114.913254,120.341049 
	C114.913254,127.467102 114.913254,134.384995 114.913254,141.899811 
	C110.080833,141.899811 105.305283,141.899811 100.037567,141.899811 
z"/>
<path fill="#FFFFFF" opacity="1.000000" stroke="none" 
	d="
M96.758621,81.736794 
	C101.396179,75.498238 107.382477,72.273643 114.805756,70.954918 
	C114.805756,77.930428 114.805756,84.687927 114.805756,91.722275 
	C106.912514,91.722275 99.072815,91.722275 90.319016,91.722275 
	C92.604904,88.127167 94.552055,85.064804 96.758621,81.736794 
z"/>
<path fill="#FFFFFF" opacity="1.000000" stroke="none" 
	d="
M126.833649,73.976410 
	C134.202698,78.163902 138.428513,84.518204 141.814178,91.907166 
	C133.865067,91.907166 126.254723,91.907166 118.322914,91.907166 
	C118.322914,84.972275 118.322914,78.096100 118.322914,70.709724 
	C121.172554,71.838768 123.812157,72.884598 126.833649,73.976410 
z"/>
<path fill="#FFFFFF" opacity="1.000000" stroke="none" 
	d="
M92.049881,145.031281 
	C99.738304,145.006531 107.019112,145.006531 114.649048,145.006531 
	C114.649048,151.278595 114.649048,157.468155 114.649048,163.966171 
	C102.893387,162.570663 96.394379,154.895828 92.049881,145.031281 
z"/>
<path fill="#FFFFFF" opacity="1.000000" stroke="none" 
	d="
M137.762070,150.640717 
	C132.969101,157.802811 126.921204,162.497787 118.295967,163.876938 
	C118.295967,157.801987 118.295967,151.763794 118.295967,145.362518 
	C125.433899,145.362518 132.808731,145.362518 140.660980,145.362518 
	C139.784637,146.979492 138.877289,148.653671 137.762070,150.640717 
z"/>
<path fill="#FFFFFF" opacity="1.000000" stroke="none" 
	d="
M150.004120,110.124352 
	C149.141174,104.920143 148.278458,100.184845 147.379089,95.248337 
	C150.578293,95.248337 154.001358,95.248337 158.180557,95.248337 
	C160.033142,102.058273 161.952026,109.111984 164.019180,116.710701 
	C158.832901,116.710701 154.742050,116.710701 150.004349,116.710701 
	C150.004349,114.766212 150.004349,112.679733 150.004120,110.124352 
z"/>
<path fill="#FFFFFF" opacity="1.000000" stroke="none" 
	d="
M82.996277,105.130722 
	C82.554642,109.145699 82.113014,112.714638 81.624939,116.658943 
	C78.044876,116.658943 74.158501,116.658943 69.181305,116.658943 
	C71.182190,109.928856 72.927048,103.469711 75.141586,97.175827 
	C75.523247,96.091125 77.838013,95.369148 79.371521,95.087257 
	C81.303139,94.732185 83.349556,95.001625 85.374825,95.001625 
	C84.562981,98.306641 83.779633,101.495667 82.996277,105.130722 
z"/>
<path fill="#FFFFFF" opacity="1.000000" stroke="none" 
	d="
M150.004135,124.948242 
	C149.837708,122.335533 149.871933,120.632118 152.985489,120.931831 
	C156.239655,121.245087 159.547379,121.001801 163.614746,121.001801 
	C161.805893,127.031258 160.366562,132.563263 158.393097,137.897675 
	C157.891449,139.253693 155.805405,140.562531 154.247284,140.866104 
	C151.726303,141.357239 149.039688,140.998230 146.933792,140.998230 
	C147.972183,135.726334 148.988098,130.568634 150.004135,124.948242 
z"/>
<path fill="#FFFFFE" opacity="1.000000" stroke="none" 
	d="
M82.976250,128.113922 
	C83.779480,132.653931 84.560043,136.753952 85.350075,140.903748 
	C82.622261,140.903748 79.656616,140.903748 75.831108,140.903748 
	C73.883766,134.617950 71.871094,128.121246 69.736382,121.230621 
	C74.071548,121.230621 77.752571,121.230621 81.476456,121.230621 
	C81.967751,123.373688 82.460670,125.523811 82.976250,128.113922 
z"/>
<path fill="#FFFFFF" opacity="1.000000" stroke="none" 
	d="
M142.011566,85.080521 
	C140.010696,81.963150 138.046661,79.227196 135.496994,75.675415 
	C144.500595,78.847076 149.875732,84.782890 154.995071,91.414734 
	C154.286957,91.751907 154.054672,91.914154 153.798035,91.977127 
	C147.874649,93.430717 144.070114,91.051064 142.011566,85.080521 
z"/>
<path fill="#FFFFFF" opacity="1.000000" stroke="none" 
	d="
M95.770912,77.584213 
	C92.558754,82.187820 89.346596,86.791420 85.797646,91.877708 
	C84.012466,91.877708 81.364700,91.877708 78.324532,91.877708 
	C81.937592,84.953941 87.866768,80.763947 94.770096,77.135513 
	C95.479378,77.375809 95.625145,77.480011 95.770912,77.584213 
z"/>
<path fill="#FFFFFF" opacity="1.000000" stroke="none" 
	d="
M136.229095,158.415741 
	C139.151382,154.098236 142.073685,149.780731 145.248932,145.089523 
	C147.525208,145.089523 150.472977,145.089523 153.420761,145.089523 
	C153.701202,145.452820 153.981644,145.816116 154.262085,146.179413 
	C148.772522,150.453125 143.282959,154.726852 137.229889,158.864471 
	C136.520615,158.624176 136.374863,158.519958 136.229095,158.415741 
z"/>
<path fill="#FFFFFF" opacity="1.000000" stroke="none" 
	d="
M94.928413,158.081345 
	C88.321075,155.925400 84.319778,150.685898 78.948181,145.307846 
	C82.521729,145.307846 84.897247,145.307846 86.900162,145.307846 
	C89.744377,149.215027 92.543884,153.060791 95.343155,157.322784 
	C95.204750,157.853134 95.066582,157.967239 94.928413,158.081345 
z"/>
<path fill="#FFFFFF" opacity="1.000000" stroke="none" 
	d="
M95.565979,157.589111 
	C96.105759,157.878891 96.422470,158.318588 96.739182,158.758301 
	C96.200516,158.719193 95.661850,158.680099 95.025803,158.361176 
	C95.066582,157.967239 95.204750,157.853134 95.565979,157.589111 
z"/>
<path fill="#FFFFFF" opacity="1.000000" stroke="none" 
	d="
M136.870071,158.903763 
	C136.510681,159.320786 135.947617,159.562454 135.384537,159.804123 
	C135.518112,159.468933 135.651688,159.133743 136.007172,158.607147 
	C136.374863,158.519958 136.520615,158.624176 136.870071,158.903763 
z"/>
<path fill="#FFFFFF" opacity="1.000000" stroke="none" 
	d="
M95.129913,77.096237 
	C95.489304,76.679199 96.052383,76.437515 96.615463,76.195831 
	C96.481888,76.531021 96.348320,76.866211 95.992828,77.392807 
	C95.625145,77.480011 95.479378,77.375809 95.129913,77.096237 
z"/>
</svg>